<svg id="svg" version="1.1" width="400" height="329.18032786885243" viewBox="0 0 400 329.18032786885243" xmlns="http://www.w3.org/2000/svg" xmlns:xlink="http://www.w3.org/1999/xlink" ><g id="svgg"><path id="path0" d="M0.000 164.609 L 0.000 329.218 200.000 329.218 L 400.000 329.218 400.000 164.609 L 400.000 0.000 200.000 0.000 L 0.000 0.000 0.000 164.609 M182.418 50.151 C 182.965 51.086,183.877 52.582,184.445 53.474 C 185.145 54.575,185.466 55.474,185.441 56.272 C 185.422 56.919,185.610 57.676,185.859 57.954 C 187.044 59.277,187.777 65.717,186.831 66.502 C 186.183 67.040,186.201 68.439,186.865 69.173 C 187.631 70.019,187.190 72.922,186.135 73.978 C 185.215 74.897,185.143 75.605,185.885 76.425 C 186.339 76.926,186.364 77.240,186.050 78.489 C 185.846 79.300,185.688 80.304,185.700 80.722 L 185.721 81.481 186.011 80.760 C 186.858 78.657,193.317 73.086,194.907 73.086 C 195.595 73.086,195.862 72.891,196.016 72.277 C 196.341 70.982,198.925 69.388,200.285 69.643 C 201.258 69.826,201.483 69.729,202.101 68.861 C 203.420 67.009,210.502 65.574,213.333 66.585 C 215.466 67.346,215.154 68.570,211.716 72.922 C 210.715 74.189,209.743 75.422,209.557 75.662 C 206.521 79.566,204.789 80.742,201.994 80.797 C 200.891 80.819,200.666 80.947,200.499 81.646 C 200.325 82.377,200.108 82.480,198.576 82.569 C 196.961 82.662,196.836 82.732,196.656 83.632 C 196.336 85.236,192.882 86.800,191.527 85.954 C 190.891 85.556,190.748 85.603,190.094 86.423 C 188.661 88.220,184.792 87.847,184.184 85.852 C 184.058 85.440,183.769 84.881,183.542 84.609 C 183.315 84.337,183.027 83.523,182.903 82.798 C 182.675 81.472,181.622 77.905,181.007 76.379 C 178.480 70.107,177.292 62.793,178.600 61.565 L 179.422 60.792 178.734 59.626 C 178.054 58.473,178.053 58.453,178.685 57.941 C 179.225 57.504,179.300 57.124,179.167 55.513 C 179.063 54.260,179.204 52.907,179.578 51.575 C 180.735 47.463,180.822 47.419,182.418 50.151 M155.426 64.320 C 156.584 64.930,158.471 65.967,159.620 66.624 C 160.769 67.281,161.817 67.819,161.948 67.819 C 162.079 67.819,162.508 68.189,162.901 68.642 C 163.295 69.095,163.904 69.465,164.254 69.465 C 165.375 69.465,168.911 71.817,169.722 73.103 C 170.158 73.793,170.861 74.414,171.344 74.535 C 172.735 74.884,174.768 76.945,175.013 78.254 C 175.180 79.140,175.471 79.512,176.257 79.841 C 178.431 80.752,180.983 84.646,181.133 87.280 C 181.245 89.231,181.409 89.316,183.940 88.728 C 184.876 88.510,185.045 88.582,185.392 89.344 C 185.608 89.818,186.037 90.206,186.345 90.206 C 186.653 90.206,187.851 90.630,189.008 91.148 C 190.165 91.666,192.519 92.568,194.239 93.152 C 200.580 95.307,206.073 99.221,205.569 101.227 C 205.416 101.836,205.562 102.038,206.347 102.312 C 207.754 102.803,210.388 108.076,209.613 108.851 C 209.344 109.120,201.688 107.293,201.534 106.924 C 201.259 106.261,200.455 105.751,199.910 105.893 C 199.355 106.038,197.664 105.229,195.947 103.995 C 195.474 103.655,195.118 102.943,194.960 102.020 C 194.727 100.659,194.657 100.582,193.726 100.676 C 192.391 100.810,191.215 99.538,190.968 97.692 C 190.810 96.507,190.657 96.282,189.955 96.200 C 189.425 96.138,188.845 95.666,188.336 94.883 C 187.900 94.212,187.161 93.080,186.693 92.369 L 185.844 91.075 185.733 92.533 C 185.672 93.335,185.854 95.029,186.139 96.296 C 186.423 97.564,186.941 100.008,187.291 101.728 C 188.284 106.613,188.519 107.636,189.295 110.453 C 189.694 111.901,190.134 113.531,190.274 114.074 C 190.674 115.631,192.516 119.511,196.760 127.737 C 198.524 131.154,201.284 138.081,201.549 139.753 C 201.645 140.358,201.998 140.430,205.930 140.638 C 210.614 140.885,218.862 141.497,221.295 141.778 L 222.838 141.956 223.682 140.289 C 224.147 139.373,224.528 138.433,224.529 138.200 C 224.530 137.968,224.768 137.333,225.057 136.790 C 225.725 135.536,226.756 132.661,227.301 130.531 C 227.533 129.624,228.205 127.956,228.794 126.825 C 230.175 124.170,230.018 123.299,228.063 122.783 C 227.295 122.581,226.314 122.189,225.883 121.912 C 225.387 121.595,224.696 121.475,224.005 121.587 C 223.146 121.726,222.672 121.573,221.785 120.868 C 220.439 119.799,219.796 119.525,212.346 116.848 C 209.177 115.710,206.436 114.676,206.255 114.551 C 206.074 114.427,205.370 114.146,204.691 113.927 C 203.202 113.447,203.105 112.804,204.444 112.303 C 207.063 111.325,207.580 111.203,215.144 109.788 C 216.412 109.551,219.226 108.965,221.399 108.486 C 223.572 108.008,226.203 107.487,227.246 107.330 C 229.667 106.966,231.370 106.411,232.501 105.618 C 232.994 105.272,234.179 104.854,235.135 104.689 C 236.090 104.525,237.412 104.233,238.071 104.041 C 238.842 103.817,239.559 103.803,240.080 104.001 C 241.031 104.363,244.279 109.069,244.282 110.090 C 244.283 110.799,244.598 111.357,246.559 114.128 C 247.179 115.004,248.745 117.276,250.039 119.177 C 251.334 121.078,252.868 123.300,253.449 124.115 C 258.037 130.549,259.518 132.915,259.239 133.366 C 258.960 133.817,257.021 133.720,256.287 133.219 C 255.930 132.975,255.145 132.680,254.542 132.563 C 253.939 132.447,252.976 132.143,252.402 131.887 C 251.828 131.632,250.840 131.242,250.206 131.020 C 248.647 130.474,246.202 129.590,243.621 128.639 C 242.192 128.113,241.030 127.897,240.121 127.989 C 239.342 128.069,238.665 127.974,238.538 127.768 C 238.415 127.569,238.472 127.407,238.664 127.407 C 239.479 127.407,238.916 126.769,237.778 126.402 C 237.099 126.184,236.395 125.895,236.214 125.761 C 234.441 124.447,231.369 124.668,231.166 126.124 C 231.105 126.558,230.920 127.054,230.754 127.226 C 230.339 127.657,230.374 128.724,230.804 128.724 C 230.997 128.724,230.627 129.369,229.981 130.157 C 229.335 130.946,228.807 131.795,228.807 132.044 C 228.807 132.533,227.671 135.611,226.995 136.955 C 224.665 141.588,225.143 142.742,229.794 143.712 C 230.971 143.957,232.809 144.463,233.878 144.836 C 237.241 146.009,237.233 146.013,244.484 140.800 C 246.781 139.148,249.199 139.560,251.465 141.990 L 252.229 142.810 251.515 143.476 C 251.122 143.842,249.580 144.970,248.088 145.984 C 246.596 146.997,245.043 148.180,244.636 148.613 L 243.897 149.400 246.475 151.303 C 250.758 154.464,253.640 157.831,256.032 162.469 C 256.406 163.193,257.230 164.772,257.863 165.978 C 260.439 170.882,260.845 173.874,259.164 175.557 L 258.095 176.626 248.472 176.825 C 239.217 177.016,235.064 177.374,228.148 178.578 C 211.254 181.518,190.154 181.476,182.698 178.487 C 182.255 178.310,180.412 177.843,178.601 177.450 C 172.933 176.220,164.018 173.396,160.494 171.713 C 159.226 171.108,157.819 170.442,157.366 170.232 C 153.309 168.351,149.971 165.175,148.991 162.261 C 147.479 157.766,152.456 152.296,161.496 148.518 C 162.937 147.917,164.724 147.143,165.468 146.799 C 166.212 146.454,167.153 146.173,167.558 146.173 C 167.964 146.173,168.762 145.959,169.333 145.697 C 170.660 145.088,173.810 144.228,176.132 143.841 C 177.128 143.676,178.905 143.329,180.082 143.071 C 184.823 142.033,189.893 141.219,191.605 141.222 C 194.323 141.226,194.456 141.063,193.925 138.388 C 193.330 135.398,191.824 131.142,189.063 124.652 C 187.999 122.152,186.842 118.732,185.873 115.226 C 184.060 108.663,183.804 107.038,183.047 97.284 C 182.836 94.568,182.509 91.975,182.320 91.523 L 181.977 90.700 181.568 91.852 C 179.419 97.903,169.961 109.086,167.916 107.992 C 166.709 107.346,165.597 107.568,165.597 108.456 C 165.597 110.817,161.698 113.364,158.641 113.001 C 157.710 112.890,157.343 113.008,156.975 113.533 C 156.164 114.692,153.841 115.223,151.882 114.698 C 149.702 114.113,151.737 107.673,155.183 104.255 C 156.142 103.303,157.063 102.304,157.229 102.035 C 157.925 100.906,162.146 97.778,162.973 97.778 C 163.531 97.778,164.068 97.451,164.524 96.835 C 165.567 95.424,168.751 93.731,170.007 93.920 C 170.822 94.042,171.274 93.852,172.244 92.981 C 172.912 92.380,174.171 91.673,175.042 91.410 C 175.913 91.147,177.070 90.695,177.613 90.406 C 178.156 90.117,178.925 89.880,179.322 89.879 C 179.719 89.877,180.132 89.733,180.241 89.557 C 180.582 89.005,178.795 88.791,177.015 89.170 C 175.424 89.510,174.223 89.787,166.669 91.557 C 160.925 92.903,154.864 92.803,153.117 91.333 C 152.387 90.719,151.925 90.566,151.283 90.727 C 150.068 91.032,143.197 88.946,143.216 88.278 C 143.233 87.692,151.016 84.252,152.295 84.266 C 153.037 84.273,154.074 84.074,154.600 83.823 C 157.140 82.608,161.214 82.862,162.835 84.336 C 163.523 84.961,163.545 84.959,164.713 84.212 C 166.126 83.310,166.120 83.260,164.461 82.027 C 163.489 81.303,163.071 80.698,162.805 79.624 C 162.559 78.635,162.299 78.226,161.965 78.306 C 160.474 78.667,159.836 78.381,158.309 76.667 C 157.443 75.693,156.642 74.492,156.531 73.996 C 156.419 73.500,155.906 72.759,155.390 72.350 C 154.180 71.388,151.604 65.231,151.907 64.023 C 152.183 62.926,152.897 62.986,155.426 64.320 M170.535 85.761 C 170.535 86.063,170.694 86.257,170.889 86.192 C 171.084 86.127,171.243 85.933,171.243 85.761 C 171.243 85.589,171.084 85.395,170.889 85.331 C 170.694 85.266,170.535 85.460,170.535 85.761 M210.041 142.863 C 210.041 143.035,210.412 143.872,210.864 144.723 C 211.317 145.574,211.687 146.690,211.687 147.203 C 211.687 148.292,211.846 148.245,206.255 148.826 C 198.820 149.599,197.646 149.584,194.069 148.674 C 187.771 147.071,187.910 147.129,186.241 145.416 L 184.659 143.792 183.276 144.166 C 182.515 144.372,181.226 144.670,180.412 144.829 C 169.833 146.885,161.975 151.399,161.975 155.419 C 161.975 158.437,168.789 162.772,177.119 165.054 C 182.365 166.491,184.155 166.940,187.160 167.570 C 188.971 167.950,191.342 168.471,192.428 168.728 C 198.895 170.259,209.384 170.191,217.514 168.566 C 221.132 167.843,221.347 167.738,220.906 166.915 C 220.293 165.769,221.030 164.705,222.781 164.211 C 224.704 163.668,224.867 162.923,223.156 162.500 C 222.237 162.273,221.677 162.332,220.802 162.747 C 217.678 164.230,211.029 162.988,211.029 160.922 C 211.029 159.866,209.796 159.599,209.053 160.494 C 208.828 160.765,208.507 160.988,208.341 160.988 C 208.024 160.988,204.312 162.739,203.457 163.291 C 203.185 163.467,201.867 164.120,200.527 164.744 L 198.090 165.878 197.234 164.962 C 196.764 164.458,195.945 163.321,195.415 162.435 C 193.626 159.442,192.201 157.366,191.936 157.366 C 191.229 157.366,189.577 154.075,189.792 153.096 C 190.090 151.738,190.617 151.660,196.575 152.088 C 199.364 152.289,204.165 152.593,207.243 152.763 C 210.321 152.933,214.025 153.166,215.473 153.280 L 218.107 153.487 218.479 152.382 C 219.079 150.598,219.666 149.062,220.284 147.654 C 221.344 145.242,221.426 143.923,220.528 143.742 C 214.617 142.554,210.041 142.170,210.041 142.863 M224.715 145.373 C 224.430 145.658,224.197 146.065,224.196 146.279 C 224.194 146.492,223.988 147.060,223.738 147.540 C 223.487 148.021,223.098 148.984,222.874 149.680 C 222.649 150.377,222.350 151.095,222.209 151.276 C 222.068 151.457,221.848 152.160,221.721 152.840 L 221.491 154.074 223.133 154.074 C 224.132 154.074,224.924 153.895,225.154 153.617 C 225.363 153.366,226.999 152.169,228.791 150.957 C 231.561 149.084,232.748 147.981,232.353 147.649 C 231.703 147.103,226.166 144.862,225.456 144.857 C 225.333 144.857,224.999 145.089,224.715 145.373 M234.318 156.050 C 233.274 156.774,232.333 157.366,232.225 157.366 C 232.117 157.366,231.589 157.737,231.051 158.189 C 230.118 158.974,229.865 159.014,225.571 159.051 C 223.096 159.072,221.366 159.150,221.728 159.224 C 222.091 159.298,222.979 159.638,223.704 159.978 C 224.428 160.319,225.687 160.845,226.502 161.148 C 227.317 161.451,228.608 162.001,229.371 162.371 C 231.245 163.278,231.315 163.228,234.190 158.911 C 237.438 154.034,237.444 153.879,234.318 156.050 M239.266 155.638 C 238.988 155.955,237.668 157.844,236.333 159.835 C 234.997 161.827,233.546 163.936,233.108 164.523 C 231.999 166.005,232.230 166.091,237.327 166.091 C 244.681 166.091,245.365 164.844,241.883 157.788 C 240.490 154.965,240.123 154.663,239.266 155.638 M195.309 157.617 C 194.817 157.954,197.918 162.963,198.619 162.963 C 199.183 162.963,205.027 160.059,205.277 159.655 C 205.384 159.483,205.796 159.336,206.192 159.330 C 206.589 159.323,207.358 158.954,207.901 158.508 L 208.889 157.699 203.951 157.694 C 201.235 157.692,198.272 157.610,197.366 157.512 C 196.461 157.415,195.535 157.462,195.309 157.617 M228.995 165.229 C 228.881 165.413,229.079 165.719,229.434 165.909 C 230.333 166.390,230.782 166.341,230.782 165.761 C 230.782 165.490,230.646 165.267,230.480 165.267 C 230.313 165.267,229.958 165.183,229.690 165.080 C 229.422 164.978,229.109 165.044,228.995 165.229 M192.190 192.447 C 192.826 192.892,192.922 193.257,192.922 195.229 C 192.922 197.872,192.630 198.187,190.416 197.937 C 187.471 197.605,186.563 199.249,186.729 204.609 L 186.831 207.901 189.245 208.066 C 192.142 208.263,192.593 208.690,192.593 211.233 C 192.593 213.739,191.971 214.217,188.477 214.400 L 186.831 214.486 186.667 223.813 C 186.476 234.601,186.654 234.074,183.210 234.074 C 179.920 234.074,180.100 234.647,180.002 223.868 L 179.918 214.486 178.308 214.301 C 174.441 213.857,174.255 208.066,178.108 208.066 C 179.890 208.066,180.083 207.545,180.081 202.738 C 180.078 196.630,181.328 193.986,184.856 192.633 C 186.985 191.816,191.139 191.711,192.190 192.447 M231.770 193.251 C 232.391 193.873,232.428 194.348,232.428 201.791 C 232.428 208.889,232.614 210.743,233.225 209.753 C 234.576 207.568,241.891 206.792,245.161 208.486 C 253.063 212.581,253.895 227.943,246.491 233.038 C 242.988 235.448,237.224 235.535,234.178 233.223 C 232.874 232.234,232.724 232.235,231.770 233.251 C 230.794 234.289,226.920 234.481,226.131 233.530 C 225.405 232.656,225.286 194.472,226.006 193.373 C 226.715 192.291,230.724 192.206,231.770 193.251 M111.052 195.045 C 114.837 195.613,116.760 196.602,118.356 198.801 C 122.448 204.439,120.131 214.230,114.361 215.683 C 111.971 216.285,111.901 216.132,118.600 224.954 C 125.599 234.169,125.581 234.074,120.367 234.074 C 116.928 234.074,117.703 234.872,107.038 220.329 C 104.371 216.692,104.362 216.710,104.362 225.871 C 104.362 234.122,104.382 234.074,100.956 234.074 C 97.351 234.074,97.628 235.650,97.523 214.506 C 97.412 192.289,96.747 194.568,103.345 194.568 C 105.837 194.568,109.305 194.782,111.052 195.045 M104.899 201.564 C 104.790 201.971,104.700 203.934,104.700 205.926 C 104.700 211.469,105.412 212.063,110.097 210.438 C 113.042 209.416,114.293 205.123,112.271 202.971 C 110.490 201.075,105.296 200.084,104.899 201.564 M144.098 208.544 C 148.030 210.339,150.553 214.073,150.974 218.721 C 151.307 222.398,151.795 222.222,141.235 222.222 C 131.031 222.222,131.090 222.207,131.912 224.598 C 133.682 229.748,139.612 230.358,144.182 225.859 L 145.838 224.229 147.054 224.737 C 150.257 226.075,150.896 227.129,149.676 229.062 C 144.542 237.195,130.942 236.845,126.312 228.461 C 119.684 216.460,131.776 202.921,144.098 208.544 M169.691 208.420 C 172.676 209.911,173.242 211.711,171.228 213.306 C 169.707 214.511,168.566 214.589,167.202 213.580 C 165.851 212.581,162.814 212.521,162.113 213.479 C 160.945 215.076,162.159 216.840,165.079 217.790 C 174.944 220.998,177.550 228.987,170.206 233.508 C 164.966 236.733,154.074 233.974,154.074 229.421 C 154.074 227.234,158.330 225.746,159.615 227.484 C 161.901 230.577,167.551 230.215,167.567 226.975 C 167.573 225.686,166.736 225.060,162.552 223.228 C 154.951 219.898,152.730 215.306,156.450 210.610 C 158.922 207.488,165.611 206.382,169.691 208.420 M213.476 208.583 C 217.315 210.358,219.658 213.713,220.225 218.247 C 220.750 222.441,221.270 222.222,210.755 222.222 C 200.522 222.222,200.502 222.227,201.188 224.517 C 202.678 229.491,209.600 230.382,213.204 226.063 C 214.913 224.014,216.376 224.101,219.240 226.420 C 221.213 228.018,215.912 233.468,211.450 234.429 C 201.386 236.599,193.926 230.981,193.926 221.235 C 193.926 210.846,204.113 204.254,213.476 208.583 M275.090 208.738 C 278.402 210.385,280.058 212.564,281.168 216.737 C 282.652 222.315,282.815 222.222,271.548 222.222 C 261.775 222.222,261.898 222.193,262.392 224.387 C 263.589 229.690,269.973 230.392,274.788 225.749 L 276.489 224.109 278.574 225.250 C 280.339 226.217,280.674 226.543,280.757 227.378 C 280.954 229.342,276.105 233.795,273.260 234.263 C 272.621 234.368,271.669 234.591,271.144 234.758 C 269.046 235.426,264.216 234.681,261.493 233.269 C 252.720 228.722,253.250 213.275,262.335 208.736 C 265.777 207.016,271.629 207.017,275.090 208.738 M302.875 208.063 C 303.668 208.487,304.097 209.944,303.581 210.460 C 303.377 210.664,303.210 211.078,303.210 211.379 C 303.210 213.007,302.058 213.599,299.181 213.446 C 294.318 213.188,293.670 214.580,293.368 225.939 C 293.140 234.509,293.319 234.061,290.123 234.069 C 286.566 234.078,286.749 234.785,286.749 221.014 C 286.749 207.271,286.549 208.063,290.010 208.071 C 292.310 208.076,292.704 208.209,293.216 209.147 C 293.515 209.694,293.626 209.674,294.834 208.847 C 296.920 207.420,300.941 207.028,302.875 208.063 M134.486 214.081 C 130.562 216.970,131.221 217.613,138.107 217.613 C 143.734 217.613,143.868 217.597,143.868 216.924 C 143.868 213.940,137.357 211.967,134.486 214.081 M204.106 213.878 C 202.496 214.954,201.481 216.104,201.481 216.852 L 201.481 217.613 207.223 217.613 C 213.422 217.613,213.609 217.556,212.821 215.903 C 211.676 213.501,206.476 212.293,204.106 213.878 M235.352 214.073 C 229.433 217.602,231.862 228.807,238.546 228.807 C 242.917 228.807,244.444 226.852,244.444 221.259 C 244.444 214.666,240.106 211.238,235.352 214.073 M265.220 213.966 C 263.980 214.783,262.743 216.308,262.728 217.037 C 262.713 217.778,274.068 217.939,274.331 217.202 C 275.312 214.452,268.274 211.952,265.220 213.966 M176.422 246.702 C 177.970 248.568,177.036 257.420,174.782 262.244 C 174.438 262.980,174.156 263.746,174.156 263.945 C 174.156 264.333,172.980 266.647,171.685 268.807 C 171.251 269.531,170.786 270.346,170.652 270.617 C 170.519 270.889,169.982 271.704,169.461 272.428 C 164.254 279.656,157.357 281.259,154.840 275.825 L 154.050 274.122 152.498 275.618 C 147.964 279.989,143.105 280.183,141.383 276.062 C 140.412 273.737,140.947 271.053,143.770 264.098 C 147.022 256.088,147.505 254.684,147.704 252.667 C 148.023 249.438,146.328 248.965,144.024 251.639 C 142.376 253.552,142.254 253.717,141.876 254.559 C 140.894 256.745,140.025 257.810,139.621 257.323 C 138.545 256.027,143.602 248.889,145.596 248.889 C 146.073 248.889,146.565 248.724,146.690 248.522 C 147.180 247.729,149.887 248.420,150.860 249.586 C 152.258 251.260,152.094 253.223,150.104 258.601 C 148.756 262.244,147.732 264.873,147.542 265.185 C 147.348 265.501,146.933 266.628,145.524 270.658 C 143.922 275.242,144.426 277.185,147.221 277.197 C 150.814 277.212,155.214 269.776,160.176 255.309 C 161.329 251.948,161.637 251.317,162.409 250.739 C 165.034 248.772,165.982 252.420,163.768 255.967 C 163.542 256.329,163.249 257.139,163.118 257.767 C 162.987 258.395,162.751 259.136,162.594 259.413 C 162.438 259.691,162.102 260.510,161.848 261.235 C 161.594 261.959,161.205 263.070,160.983 263.704 C 159.754 267.216,159.248 268.587,158.819 269.572 C 156.357 275.216,159.231 279.258,163.428 276.054 C 165.789 274.252,169.877 269.157,169.877 268.017 C 169.877 267.866,170.141 267.390,170.463 266.958 C 170.786 266.526,171.392 265.358,171.810 264.362 C 172.228 263.366,172.832 261.959,173.153 261.235 C 174.496 258.198,175.082 251.843,174.335 248.428 C 173.956 246.694,175.414 245.487,176.422 246.702 M229.116 246.574 C 229.784 246.931,229.650 247.568,227.906 252.346 C 227.443 253.613,226.729 255.613,226.319 256.790 C 225.909 257.967,225.029 260.412,224.364 262.222 C 220.029 274.021,219.869 274.658,220.912 275.983 C 223.481 279.248,228.631 274.755,232.720 265.679 C 234.510 261.706,237.439 258.390,240.494 256.875 C 243.020 255.623,247.509 255.687,248.461 256.989 C 249.135 257.911,249.713 257.087,251.040 253.316 C 251.673 251.515,252.411 249.574,252.680 249.004 C 252.949 248.433,253.169 247.735,253.169 247.452 C 253.169 246.359,255.993 245.788,256.770 246.724 C 257.076 247.093,256.974 247.710,256.293 249.605 C 255.817 250.931,255.273 252.535,255.085 253.169 C 254.897 253.802,254.579 254.617,254.377 254.979 C 254.175 255.342,253.835 256.230,253.621 256.955 C 252.992 259.085,252.207 261.171,251.683 262.108 C 251.414 262.589,251.193 263.220,251.193 263.510 C 251.193 263.800,250.685 265.333,250.064 266.916 C 246.810 275.205,247.556 278.359,252.301 276.376 C 253.618 275.826,257.119 272.452,257.119 271.733 C 257.119 271.482,257.275 271.276,257.465 271.276 C 257.656 271.276,258.022 270.794,258.279 270.206 C 259.012 268.531,259.989 267.432,260.390 267.832 C 260.710 268.150,260.346 268.859,258.187 272.130 C 257.959 272.475,257.589 273.128,257.365 273.580 C 254.360 279.642,245.769 280.681,244.632 275.121 C 244.332 273.658,243.943 273.722,242.090 275.537 C 236.983 280.537,232.499 279.814,230.974 273.745 L 230.726 272.757 229.687 274.074 C 225.458 279.431,220.838 280.464,217.887 276.712 C 216.957 275.530,216.836 271.549,217.672 269.630 C 218.444 267.855,219.511 264.981,219.871 263.704 C 220.050 263.070,220.587 261.514,221.066 260.247 C 222.465 256.540,222.852 255.474,223.916 252.401 C 224.470 250.802,225.129 249.098,225.381 248.615 C 225.633 248.132,225.840 247.581,225.842 247.391 C 225.848 246.373,227.821 245.881,229.116 246.574 M192.857 256.149 C 196.969 257.030,198.209 262.537,195.779 269.120 C 195.155 270.808,195.369 271.276,196.765 271.276 C 198.861 271.276,200.318 269.701,201.790 265.844 C 202.205 264.757,202.749 263.401,203.000 262.831 C 203.251 262.260,203.456 261.668,203.455 261.514 C 203.447 260.074,205.275 256.465,206.170 256.153 C 207.604 255.654,208.922 256.338,208.798 257.519 C 208.655 258.888,209.350 258.955,210.406 257.674 C 212.014 255.724,215.604 255.327,216.952 256.951 C 218.128 258.369,216.874 261.399,215.111 261.399 C 214.120 261.399,212.910 259.844,213.151 258.882 C 213.547 257.305,210.401 258.760,209.882 260.393 C 209.764 260.765,209.554 261.070,209.416 261.070 C 209.110 261.070,207.261 263.884,206.567 265.403 C 206.292 266.007,205.639 267.169,205.116 267.984 C 204.594 268.798,204.155 269.734,204.141 270.062 C 204.127 270.391,203.831 271.354,203.483 272.202 C 203.135 273.051,202.481 274.708,202.030 275.885 C 201.156 278.161,200.375 278.860,199.000 278.597 C 198.066 278.418,197.563 277.095,198.100 276.234 C 198.286 275.937,198.539 275.093,198.663 274.358 L 198.889 273.022 196.317 273.054 L 193.745 273.086 191.686 275.137 C 182.584 284.203,173.971 275.417,180.142 263.360 C 183.024 257.729,187.744 255.052,192.857 256.149 M189.794 257.796 C 184.129 259.452,179.190 275.032,183.807 276.683 C 186.212 277.544,192.586 272.041,191.740 269.835 C 191.340 268.793,191.975 266.989,193.265 265.498 C 194.533 264.034,194.568 263.926,194.568 261.529 C 194.568 257.865,193.206 256.800,189.794 257.796 M244.199 257.777 C 238.276 259.560,231.666 276.872,236.908 276.872 C 239.334 276.872,242.449 273.751,244.822 268.939 C 248.896 260.680,248.659 256.435,244.199 257.777 " stroke="none" fill="#ffffff" fill-rule="evenodd"></path><path id="path1" d="M184.255 94.156 C 183.808 97.847,184.944 107.992,186.365 113.004 C 187.865 118.289,188.414 120.065,188.867 121.089 C 189.132 121.687,189.692 123.095,190.112 124.216 C 191.222 127.180,192.877 131.309,193.606 132.931 C 193.954 133.705,194.239 134.583,194.239 134.883 C 194.239 135.182,194.569 136.452,194.973 137.706 L 195.707 139.986 197.612 139.848 C 200.281 139.655,200.334 139.530,199.203 136.110 C 198.213 133.119,197.851 132.269,196.201 129.053 C 192.890 122.604,190.207 117.056,189.807 115.830 C 189.551 115.045,189.022 113.514,188.632 112.428 C 188.243 111.342,187.722 109.267,187.474 107.819 C 187.227 106.370,186.813 104.370,186.555 103.374 C 185.597 99.684,185.019 96.825,184.982 95.591 C 184.900 92.937,184.499 92.145,184.255 94.156 M235.992 105.332 C 235.326 105.461,234.247 106.037,233.594 106.611 C 232.096 107.926,232.375 107.949,234.243 106.664 C 235.907 105.519,239.283 104.947,240.146 105.663 C 241.082 106.440,242.963 109.582,242.963 110.368 C 242.963 110.843,244.377 113.168,246.502 116.184 C 248.449 118.948,250.189 121.458,250.370 121.763 C 250.882 122.626,252.290 124.591,252.527 124.774 C 252.645 124.864,252.931 125.299,253.164 125.741 C 253.397 126.182,253.725 126.700,253.893 126.893 C 254.904 128.049,257.053 131.528,256.904 131.769 C 256.807 131.926,256.260 131.973,255.689 131.872 C 254.887 131.731,254.800 131.758,255.309 131.994 C 256.308 132.457,257.449 132.405,257.449 131.895 C 257.449 131.382,256.138 129.397,250.573 121.481 C 244.860 113.355,243.292 110.912,243.292 110.137 C 243.292 109.671,242.614 108.363,241.751 107.163 C 240.069 104.825,239.510 104.647,235.992 105.332 M209.218 112.263 C 208.803 112.442,208.742 112.546,209.053 112.546 C 209.325 112.546,209.844 112.419,210.206 112.263 C 210.621 112.085,210.682 111.980,210.370 111.980 C 210.099 111.980,209.580 112.108,209.218 112.263 M244.115 127.732 C 244.840 128.070,246.321 128.670,247.407 129.066 C 248.494 129.462,250.198 130.083,251.193 130.446 C 252.189 130.809,253.278 131.247,253.612 131.420 C 253.947 131.592,254.293 131.661,254.381 131.572 C 254.615 131.338,253.654 130.891,250.856 129.934 C 249.493 129.467,247.271 128.635,245.917 128.083 C 243.230 126.988,242.005 126.750,244.115 127.732 M244.212 142.357 C 242.998 143.188,241.925 143.868,241.829 143.868 C 241.656 143.868,240.640 144.657,239.847 145.408 C 239.622 145.621,238.934 146.006,238.320 146.265 C 237.705 146.524,236.535 147.246,235.720 147.870 C 234.050 149.149,229.043 152.746,226.857 154.237 C 225.298 155.300,222.193 155.535,220.119 154.747 C 219.539 154.526,219.008 154.515,218.633 154.715 C 218.039 155.033,209.589 154.726,201.481 154.090 C 191.580 153.315,191.325 153.331,191.756 154.691 C 192.023 155.531,192.152 155.558,198.189 156.043 C 207.561 156.796,212.881 157.117,215.638 157.096 C 217.177 157.084,220.765 157.228,223.610 157.416 C 229.555 157.808,228.701 158.069,234.453 154.106 C 236.136 152.946,238.310 151.645,239.284 151.214 C 240.258 150.784,241.578 149.849,242.217 149.137 C 242.856 148.425,244.821 146.877,246.583 145.696 C 250.740 142.911,250.825 142.803,249.564 141.905 C 247.705 140.581,246.679 140.667,244.212 142.357 M226.906 247.654 C 226.721 247.881,226.416 248.584,226.227 249.218 C 225.770 250.753,224.911 253.176,224.535 253.992 C 224.368 254.354,223.790 255.909,223.252 257.449 C 222.713 258.988,221.883 261.284,221.406 262.551 C 220.930 263.819,220.385 265.374,220.195 266.008 C 220.005 266.642,219.739 267.309,219.605 267.490 C 218.604 268.838,217.839 273.910,218.460 275.077 C 219.423 276.885,219.587 276.779,219.603 274.340 C 219.611 273.108,219.843 271.506,220.119 270.782 C 220.395 270.058,220.750 269.021,220.907 268.477 C 221.065 267.934,221.559 266.527,222.005 265.350 C 222.452 264.173,223.002 262.691,223.228 262.058 C 223.454 261.424,224.056 259.794,224.565 258.436 C 225.074 257.078,225.723 255.300,226.007 254.486 C 226.291 253.671,226.756 252.337,227.039 251.523 C 227.322 250.708,227.688 249.900,227.851 249.728 C 228.014 249.556,228.148 248.927,228.148 248.329 C 228.148 247.197,227.545 246.870,226.906 247.654 M254.441 247.577 C 254.145 247.750,253.802 248.427,253.679 249.082 C 253.467 250.211,253.207 250.913,251.859 253.992 C 251.541 254.716,251.169 255.827,251.030 256.461 C 250.892 257.095,250.366 258.214,249.862 258.948 C 249.358 259.682,248.796 261.092,248.614 262.081 C 248.252 264.037,247.376 266.434,246.111 268.931 C 245.367 270.398,245.329 270.698,245.619 272.746 C 246.057 275.841,246.435 276.374,246.711 274.290 C 246.934 272.612,247.915 269.389,249.233 266.008 C 249.622 265.012,250.216 263.383,250.554 262.387 C 251.655 259.141,252.197 257.715,252.687 256.767 C 252.952 256.254,253.170 255.569,253.171 255.243 C 253.172 254.917,253.389 254.235,253.654 253.728 C 253.918 253.221,254.279 252.332,254.455 251.753 C 254.631 251.174,254.990 250.114,255.253 249.398 C 255.922 247.574,255.617 246.890,254.441 247.577 M175.657 248.200 C 175.555 248.364,175.611 248.846,175.781 249.270 C 176.070 249.991,176.091 249.972,176.111 248.971 C 176.132 247.889,175.994 247.655,175.657 248.200 M149.133 251.276 C 149.130 253.158,147.818 257.222,145.175 263.539 C 142.027 271.064,141.411 274.543,142.926 276.246 L 143.630 277.037 143.409 276.114 C 143.092 274.786,144.401 269.726,145.983 266.173 C 146.224 265.630,146.826 264.159,147.319 262.904 C 147.813 261.649,148.338 260.390,148.487 260.106 C 148.636 259.821,148.999 258.848,149.295 257.942 C 150.776 253.399,150.907 249.877,149.594 249.877 C 149.275 249.877,149.135 250.300,149.133 251.276 M162.892 251.933 C 162.401 252.316,160.998 255.555,160.503 257.449 C 160.385 257.901,160.153 258.568,159.988 258.930 C 159.637 259.701,158.833 261.941,158.161 264.019 C 157.900 264.826,157.078 266.742,156.335 268.277 C 154.908 271.225,154.885 271.622,155.930 275.309 C 156.237 276.388,156.708 275.889,156.708 274.484 C 156.708 273.161,158.252 267.983,160.169 262.881 C 160.645 261.613,161.188 260.058,161.375 259.424 C 161.562 258.790,161.851 258.104,162.018 257.898 C 162.185 257.693,162.524 256.804,162.770 255.923 C 163.016 255.042,163.414 253.842,163.655 253.256 C 164.172 251.993,163.752 251.263,162.892 251.933 M205.934 257.761 C 205.658 258.296,205.432 258.893,205.432 259.089 C 205.432 259.285,205.185 259.996,204.884 260.669 C 204.582 261.342,204.152 262.486,203.928 263.210 C 203.362 265.036,202.700 266.682,202.140 267.654 C 201.455 268.843,200.846 270.522,200.349 272.593 C 200.110 273.588,199.724 274.863,199.492 275.425 C 199.259 275.986,199.165 276.697,199.283 277.003 C 199.594 277.812,200.760 277.107,201.011 275.958 C 201.211 275.043,202.209 272.229,202.964 270.453 C 203.195 269.909,203.491 269.109,203.623 268.674 C 203.754 268.239,204.282 267.172,204.795 266.302 C 205.307 265.432,205.896 263.788,206.102 262.648 C 206.309 261.509,206.612 260.413,206.777 260.214 C 206.942 260.014,207.172 259.163,207.287 258.321 C 207.540 256.476,206.765 256.156,205.934 257.761 M214.875 258.423 C 214.193 259.577,214.192 259.633,214.857 259.888 C 215.637 260.188,216.228 259.545,216.046 258.594 C 215.819 257.403,215.505 257.357,214.875 258.423 M185.224 258.888 C 180.848 261.505,177.622 271.367,179.906 275.144 C 180.884 276.761,180.977 276.542,181.158 272.181 C 181.360 267.309,182.254 264.593,184.958 260.639 C 186.126 258.931,186.223 258.291,185.224 258.888 M237.128 260.869 C 233.199 265.168,231.180 272.087,232.853 275.515 C 233.524 276.888,233.918 276.663,233.801 274.974 C 233.585 271.868,236.091 264.513,238.315 261.728 C 240.785 258.634,239.813 257.930,237.128 260.869 M195.622 262.812 C 195.558 264.953,195.501 265.098,194.259 266.268 C 192.607 267.823,192.055 271.936,193.498 271.935 C 193.985 271.934,194.238 271.737,194.236 271.358 C 194.232 270.464,195.354 266.196,195.650 265.980 C 195.796 265.873,195.863 264.614,195.801 263.181 L 195.688 260.576 195.622 262.812 " stroke="none" fill="#b06119" fill-rule="evenodd"></path><path id="path2" d="M236.391 105.591 C 235.946 105.675,234.958 106.172,234.196 106.696 C 233.191 107.387,232.148 107.741,230.397 107.984 C 229.070 108.168,227.613 108.450,227.160 108.611 C 225.557 109.180,220.383 110.245,218.346 110.426 C 217.209 110.526,215.846 110.833,215.317 111.107 C 214.787 111.381,213.865 111.607,213.267 111.609 C 212.670 111.612,211.242 111.908,210.094 112.268 C 208.946 112.627,207.539 112.927,206.967 112.934 C 205.955 112.945,207.724 113.790,210.206 114.480 C 210.568 114.581,211.012 114.770,211.193 114.900 C 211.374 115.031,212.560 115.465,213.827 115.865 C 215.095 116.264,216.621 116.877,217.218 117.225 C 217.816 117.573,218.889 117.951,219.603 118.065 C 220.317 118.179,221.230 118.559,221.633 118.908 C 222.488 119.650,223.832 120.284,225.679 120.818 C 227.121 121.234,227.429 121.356,230.185 122.607 C 231.215 123.074,232.378 123.457,232.768 123.457 C 233.159 123.457,233.872 123.661,234.352 123.910 C 234.833 124.160,236.115 124.691,237.202 125.091 C 238.288 125.490,239.900 126.101,240.785 126.448 C 241.669 126.794,242.632 127.079,242.925 127.079 C 243.217 127.080,244.564 127.532,245.917 128.083 C 247.271 128.635,249.493 129.464,250.856 129.927 C 252.218 130.389,253.632 130.955,253.997 131.184 C 254.911 131.759,256.690 132.116,256.904 131.769 C 257.053 131.528,254.904 128.049,253.893 126.893 C 253.725 126.700,253.397 126.182,253.164 125.741 C 252.931 125.299,252.645 124.864,252.527 124.774 C 252.290 124.591,250.882 122.626,250.370 121.763 C 250.189 121.458,248.449 118.948,246.502 116.184 C 244.423 113.232,242.963 110.839,242.963 110.383 C 242.963 109.559,242.435 108.590,240.894 106.584 C 239.912 105.307,238.992 105.104,236.391 105.591 M186.173 193.289 C 182.483 194.026,181.435 196.078,181.103 203.212 C 180.846 208.725,180.703 209.047,178.366 209.359 L 176.955 209.547 176.955 211.193 L 176.955 212.840 178.517 212.940 C 180.876 213.091,180.880 213.107,181.070 223.539 L 181.235 232.593 183.035 232.695 C 185.739 232.848,185.679 233.065,185.679 223.056 C 185.679 212.866,185.638 213.007,188.578 212.999 C 191.049 212.992,191.342 212.770,191.215 210.996 L 191.111 209.547 188.862 209.383 C 185.849 209.162,185.679 208.903,185.679 204.527 C 185.679 198.506,186.684 196.740,190.123 196.718 C 191.884 196.707,192.198 196.431,192.240 194.855 C 192.283 193.271,189.657 192.593,186.173 193.289 M227.240 193.484 L 226.497 193.627 226.582 213.110 L 226.667 232.593 228.687 232.690 C 230.675 232.785,230.713 232.771,231.057 231.784 C 231.518 230.460,232.106 230.513,234.465 232.088 C 240.135 235.874,247.292 233.402,249.774 226.801 C 250.808 224.049,250.866 217.851,249.877 215.802 C 249.527 215.078,249.235 214.353,249.229 214.190 C 249.217 213.857,247.029 211.090,246.263 210.438 C 243.229 207.857,236.310 208.001,233.909 210.695 C 231.413 213.496,231.122 212.647,231.116 202.543 L 231.111 193.893 230.267 193.572 C 229.412 193.247,228.593 193.223,227.240 193.484 M99.163 195.967 C 98.853 196.340,98.780 200.643,98.845 214.523 L 98.930 232.593 100.705 232.694 C 103.258 232.839,103.189 233.059,103.374 224.264 L 103.539 216.461 104.407 216.360 C 105.308 216.256,106.538 217.629,110.123 222.736 C 110.848 223.768,111.885 225.177,112.428 225.866 C 112.971 226.555,114.008 227.943,114.733 228.949 C 117.370 232.614,117.574 232.757,120.167 232.757 C 122.635 232.757,122.786 232.620,121.893 231.196 C 121.160 230.028,114.076 220.595,112.257 218.366 C 110.818 216.603,111.188 215.436,113.294 215.099 C 113.995 214.987,114.568 214.776,114.568 214.630 C 114.568 214.485,114.847 214.277,115.188 214.169 C 121.751 212.086,120.390 198.901,113.362 196.473 C 111.043 195.672,99.742 195.269,99.163 195.967 M111.602 201.115 C 114.124 202.659,114.608 204.951,113.366 209.464 C 112.769 211.630,105.119 212.925,104.121 211.029 C 103.360 209.583,103.687 200.905,104.527 200.273 C 105.593 199.472,109.719 199.963,111.602 201.115 M135.473 208.604 C 131.537 209.658,127.878 212.235,127.229 214.409 C 127.108 214.813,126.766 215.514,126.468 215.967 C 125.469 217.484,125.697 224.876,126.813 227.185 C 130.625 235.066,142.220 236.231,148.148 229.329 C 149.604 227.634,149.586 227.294,147.989 226.358 C 146.146 225.278,146.066 225.287,144.782 226.701 C 140.080 231.878,131.245 229.973,130.490 223.619 C 130.220 221.346,129.942 221.410,140.564 221.298 L 150.123 221.197 150.123 219.634 C 150.123 212.456,142.506 206.721,135.473 208.604 M161.811 208.599 C 158.131 209.548,155.965 212.003,156.003 215.185 C 156.044 218.556,157.287 219.664,164.938 223.148 C 168.177 224.623,169.283 226.239,168.438 228.261 C 167.196 231.234,162.307 231.627,159.574 228.972 C 158.259 227.695,157.772 227.592,156.402 228.301 C 152.747 230.191,157.719 233.591,164.095 233.562 C 174.129 233.515,176.989 224.519,168.289 220.371 C 166.899 219.708,164.832 218.723,163.696 218.183 C 160.437 216.632,159.591 214.919,161.163 213.051 C 162.795 211.112,165.131 210.934,167.590 212.561 L 168.941 213.455 170.067 212.849 C 173.751 210.865,166.833 207.305,161.811 208.599 M203.621 208.935 C 200.967 209.656,196.872 212.716,196.872 213.979 C 196.872 214.118,196.589 214.593,196.242 215.034 C 194.630 217.083,194.652 224.407,196.280 227.552 C 200.059 234.857,211.241 236.044,217.115 229.765 C 218.848 227.912,218.920 227.520,217.689 226.610 C 215.897 225.285,215.451 225.331,213.745 227.012 C 208.740 231.946,199.883 229.483,199.843 223.147 C 199.832 221.401,199.757 221.415,210.041 221.235 L 219.424 221.070 219.527 219.818 C 220.135 212.446,211.769 206.722,203.621 208.935 M266.173 208.584 C 254.436 211.375,252.242 227.374,262.858 232.757 C 265.613 234.154,271.994 233.994,274.829 232.457 C 278.648 230.386,280.946 227.399,279.192 226.787 C 278.640 226.595,278.189 226.320,278.189 226.176 C 278.189 225.118,276.417 225.584,275.036 227.005 C 270.636 231.532,263.328 230.298,261.403 224.702 C 260.818 223.003,260.844 222.090,261.493 221.499 C 261.532 221.464,265.786 221.353,270.947 221.253 L 280.329 221.070 280.436 219.753 C 281.007 212.749,273.472 206.849,266.173 208.584 M297.119 208.867 C 296.395 209.132,295.315 209.907,294.718 210.589 C 293.520 211.960,292.699 211.873,292.340 210.339 C 292.127 209.429,289.104 208.987,288.204 209.734 C 287.572 210.258,287.504 231.734,288.132 232.362 C 288.644 232.874,291.438 232.874,291.951 232.362 C 292.229 232.084,292.346 230.203,292.346 226.003 C 292.346 214.826,293.428 212.529,298.713 212.492 C 301.555 212.472,302.551 211.879,302.551 210.210 C 302.551 208.676,299.624 207.952,297.119 208.867 M141.564 212.736 C 143.974 213.640,145.803 216.942,144.493 218.025 C 143.415 218.915,132.771 218.886,131.664 217.990 C 130.736 217.238,131.112 216.020,132.861 214.110 C 134.578 212.235,138.553 211.608,141.564 212.736 M211.193 213.041 C 212.824 213.846,213.972 215.264,214.218 216.776 C 214.483 218.407,213.731 218.601,207.130 218.601 C 200.489 218.601,199.838 218.375,200.678 216.362 C 202.282 212.516,207.068 211.004,211.193 213.041 M270.315 212.351 C 273.576 212.969,276.819 216.490,275.419 217.892 C 274.744 218.567,263.564 218.901,262.404 218.281 C 260.075 217.035,263.451 212.894,267.325 212.244 C 267.778 212.168,268.239 212.086,268.350 212.061 C 268.461 212.037,269.345 212.167,270.315 212.351 M240.680 212.675 C 247.318 214.519,247.661 227.963,241.109 229.483 C 235.159 230.863,231.064 227.455,230.999 221.070 C 230.935 214.821,235.174 211.146,240.680 212.675 " stroke="none" fill="#ed1b2f" fill-rule="evenodd"></path><path id="path3" d="M183.757 90.715 C 181.815 94.976,185.601 117.061,189.621 124.926 C 189.988 125.643,190.288 126.407,190.288 126.623 C 190.288 126.840,190.706 127.957,191.217 129.105 C 192.230 131.380,193.677 135.597,194.251 137.942 C 194.818 140.262,195.305 140.723,197.124 140.666 C 200.819 140.548,201.672 139.902,200.675 137.975 C 200.394 137.432,200.160 136.795,200.153 136.560 C 200.147 136.324,199.856 135.539,199.506 134.815 C 199.156 134.091,198.865 133.318,198.859 133.098 C 198.853 132.878,196.922 128.869,194.568 124.190 C 192.214 119.511,190.288 115.422,190.288 115.104 C 190.288 114.786,190.004 113.831,189.657 112.983 C 189.051 111.499,188.458 109.092,187.047 102.387 C 186.686 100.667,186.154 98.148,185.865 96.790 C 185.577 95.432,185.343 93.979,185.346 93.561 C 185.351 92.497,184.662 89.877,184.376 89.877 C 184.245 89.877,183.967 90.254,183.757 90.715 M184.982 95.591 C 185.019 96.825,185.597 99.684,186.555 103.374 C 186.813 104.370,187.227 106.370,187.474 107.819 C 187.722 109.267,188.243 111.342,188.632 112.428 C 189.022 113.514,189.551 115.045,189.807 115.830 C 190.207 117.056,192.890 122.604,196.201 129.053 C 197.851 132.269,198.213 133.119,199.203 136.110 C 200.334 139.530,200.281 139.655,197.612 139.848 L 195.707 139.986 194.973 137.706 C 194.569 136.452,194.239 135.182,194.239 134.883 C 194.239 134.583,193.954 133.705,193.606 132.931 C 192.877 131.309,191.222 127.180,190.112 124.216 C 189.692 123.095,189.132 121.687,188.867 121.089 C 188.414 120.065,187.865 118.289,186.365 113.004 C 184.944 107.992,183.808 97.847,184.255 94.156 C 184.499 92.145,184.900 92.937,184.982 95.591 M237.202 104.362 C 236.840 104.518,236.093 104.655,235.543 104.668 C 234.993 104.681,233.956 104.999,233.238 105.376 C 231.252 106.418,229.514 106.990,227.332 107.318 C 226.242 107.482,223.572 108.008,221.399 108.486 C 219.226 108.965,216.412 109.551,215.144 109.788 C 207.580 111.203,207.063 111.325,204.444 112.303 C 203.105 112.804,203.202 113.447,204.691 113.927 C 205.370 114.146,206.074 114.427,206.255 114.551 C 206.436 114.676,209.177 115.702,212.346 116.832 C 215.514 117.961,219.292 119.472,220.741 120.189 C 222.189 120.906,223.751 121.490,224.210 121.487 C 224.670 121.484,225.627 121.778,226.337 122.140 C 227.048 122.502,227.888 122.798,228.205 122.798 C 229.314 122.798,230.177 124.143,229.946 125.511 C 229.777 126.510,229.837 126.749,230.259 126.749 C 230.547 126.749,230.782 126.481,230.782 126.153 C 230.782 124.444,234.034 124.215,236.214 125.770 C 236.395 125.899,237.087 126.180,237.751 126.394 C 238.416 126.608,239.138 126.997,239.356 127.260 C 239.573 127.522,240.177 127.737,240.696 127.737 C 241.216 127.737,242.939 128.232,244.524 128.838 C 246.110 129.443,247.926 130.124,248.560 130.350 C 249.193 130.576,250.453 131.057,251.358 131.418 C 252.263 131.780,253.597 132.234,254.321 132.427 C 255.045 132.620,255.930 132.977,256.287 133.221 C 257.107 133.779,258.578 133.792,259.031 133.245 C 259.387 132.816,258.781 131.813,254.413 125.597 C 253.395 124.148,251.555 121.481,250.324 119.671 C 249.094 117.860,247.303 115.280,246.345 113.938 C 245.387 112.596,244.388 110.775,244.126 109.892 C 242.890 105.732,239.785 103.252,237.202 104.362 M241.751 107.163 C 242.614 108.363,243.292 109.671,243.292 110.137 C 243.292 110.912,244.860 113.355,250.573 121.481 C 258.245 132.394,258.342 132.577,256.313 132.248 C 255.689 132.146,254.689 131.853,254.091 131.595 C 253.031 131.139,251.424 130.531,247.407 129.066 C 246.321 128.670,244.799 128.061,244.024 127.712 C 243.250 127.363,242.390 127.078,242.114 127.078 C 241.838 127.078,241.064 126.789,240.394 126.435 C 239.725 126.081,238.288 125.470,237.202 125.078 C 236.115 124.685,234.833 124.160,234.352 123.910 C 233.872 123.661,232.918 123.457,232.234 123.457 C 231.490 123.457,230.716 123.213,230.309 122.850 C 229.620 122.235,226.816 121.139,224.295 120.499 C 223.533 120.305,222.492 119.795,221.981 119.365 C 221.470 118.935,220.407 118.410,219.618 118.197 C 218.830 117.985,217.945 117.686,217.652 117.533 C 217.359 117.380,216.305 116.963,215.309 116.606 C 214.313 116.250,211.922 115.349,209.996 114.605 C 208.069 113.860,206.218 113.239,205.880 113.223 C 205.147 113.190,208.139 112.466,212.014 111.738 C 213.552 111.449,215.097 111.060,215.447 110.872 C 215.798 110.685,217.143 110.413,218.437 110.268 C 220.790 110.004,224.229 109.308,227.325 108.469 C 228.230 108.223,229.762 107.924,230.728 107.804 C 232.022 107.642,232.787 107.319,233.633 106.576 C 236.372 104.171,239.776 104.417,241.751 107.163 M228.797 127.754 C 228.230 128.813,227.497 131.432,227.493 132.412 C 227.491 132.901,227.257 133.431,226.972 133.590 C 226.362 133.932,225.895 136.626,226.446 136.626 C 226.644 136.626,226.962 136.045,227.153 135.336 C 227.344 134.627,227.719 133.627,227.987 133.114 C 228.254 132.601,228.474 131.890,228.475 131.535 C 228.476 131.180,228.861 130.583,229.329 130.210 C 230.071 129.618,230.151 129.373,229.951 128.304 C 229.693 126.927,229.332 126.755,228.797 127.754 M225.197 137.592 C 225.009 137.942,224.856 138.590,224.856 139.033 C 224.856 139.475,224.634 140.022,224.362 140.247 C 224.091 140.472,223.868 140.826,223.868 141.033 C 223.868 141.240,223.572 141.962,223.210 142.637 C 222.406 144.137,222.309 145.916,223.045 145.633 C 223.317 145.529,223.539 145.112,223.539 144.707 C 223.539 144.302,223.835 143.702,224.198 143.374 C 224.664 142.953,224.856 142.361,224.856 141.348 C 224.856 140.561,224.990 139.918,225.153 139.918 C 225.464 139.918,226.173 138.167,226.173 137.399 C 226.173 136.744,225.589 136.859,225.197 137.592 M244.380 141.331 C 243.258 142.093,241.480 143.315,240.429 144.048 C 239.378 144.781,237.778 145.804,236.872 146.322 C 235.967 146.841,234.873 147.612,234.440 148.036 C 234.008 148.460,232.557 149.585,231.215 150.535 C 229.873 151.486,228.015 152.819,227.085 153.498 C 224.884 155.106,221.421 155.323,220.132 153.932 C 219.411 153.154,219.378 153.149,218.992 153.767 C 218.530 154.508,215.400 154.622,210.206 154.087 C 204.423 153.491,191.541 153.019,191.171 153.389 C 190.635 153.925,191.747 155.999,192.665 156.178 C 193.807 156.400,204.324 157.045,206.729 157.041 C 208.742 157.037,210.664 157.298,214.572 158.104 C 215.909 158.380,216.483 158.365,217.090 158.040 C 217.664 157.733,218.751 157.680,221.119 157.841 C 222.903 157.963,225.480 158.081,226.847 158.104 L 229.333 158.144 233.202 155.533 C 238.097 152.229,238.317 152.109,239.493 152.104 C 240.258 152.100,240.895 151.650,242.456 150.013 C 243.550 148.866,245.704 147.090,247.243 146.066 C 252.345 142.672,252.404 142.514,249.186 140.889 C 246.775 139.672,246.832 139.667,244.380 141.331 M249.564 141.905 C 250.825 142.803,250.740 142.911,246.583 145.696 C 244.821 146.877,242.856 148.425,242.217 149.137 C 241.578 149.849,240.258 150.784,239.284 151.214 C 238.310 151.645,236.136 152.946,234.453 154.106 C 228.701 158.069,229.555 157.808,223.610 157.416 C 220.765 157.228,217.177 157.084,215.638 157.096 C 212.881 157.117,207.561 156.796,198.189 156.043 C 192.152 155.558,192.023 155.531,191.756 154.691 C 191.325 153.331,191.580 153.315,201.481 154.090 C 209.589 154.726,218.039 155.033,218.633 154.715 C 219.008 154.515,219.539 154.526,220.119 154.747 C 222.193 155.535,225.298 155.300,226.857 154.237 C 229.043 152.746,234.050 149.149,235.720 147.870 C 236.535 147.246,237.705 146.524,238.320 146.265 C 238.934 146.006,239.622 145.621,239.847 145.408 C 240.640 144.657,241.656 143.868,241.829 143.868 C 241.925 143.868,242.998 143.188,244.212 142.357 C 246.679 140.667,247.705 140.581,249.564 141.905 M221.783 147.051 C 221.439 147.395,221.527 148.807,221.893 148.807 C 222.074 148.807,222.222 148.362,222.222 147.819 C 222.222 146.796,222.155 146.679,221.783 147.051 M220.494 150.233 C 220.102 151.189,220.180 152.627,220.600 152.206 C 220.794 152.012,220.905 151.353,220.847 150.741 C 220.765 149.880,220.685 149.766,220.494 150.233 M184.856 192.633 C 181.328 193.986,180.078 196.630,180.081 202.738 C 180.083 207.545,179.890 208.066,178.108 208.066 C 174.255 208.066,174.441 213.857,178.308 214.301 L 179.918 214.486 180.002 223.868 C 180.100 234.647,179.920 234.074,183.210 234.074 C 186.654 234.074,186.476 234.601,186.667 223.813 L 186.831 214.486 188.477 214.400 C 191.971 214.217,192.593 213.739,192.593 211.233 C 192.593 208.690,192.142 208.263,189.245 208.066 L 186.831 207.901 186.729 204.609 C 186.563 199.249,187.471 197.605,190.416 197.937 C 192.630 198.187,192.922 197.872,192.922 195.229 C 192.922 191.845,189.653 190.793,184.856 192.633 M226.006 193.373 C 225.286 194.472,225.405 232.656,226.131 233.530 C 226.920 234.481,230.794 234.289,231.770 233.251 C 232.724 232.235,232.874 232.234,234.178 233.223 C 238.135 236.226,245.588 235.088,248.701 231.006 C 252.682 225.786,252.460 215.864,248.253 210.980 C 244.796 206.966,235.421 206.201,233.225 209.753 C 232.614 210.743,232.428 208.889,232.428 201.791 C 232.428 192.335,232.529 192.593,228.814 192.593 C 226.761 192.593,226.463 192.675,226.006 193.373 M191.830 193.631 C 192.286 194.009,192.372 195.378,191.993 196.214 C 191.839 196.555,191.260 196.711,190.123 196.718 C 186.684 196.740,185.679 198.506,185.679 204.527 C 185.679 208.903,185.849 209.162,188.862 209.383 L 191.111 209.547 191.215 210.996 C 191.342 212.770,191.049 212.992,188.578 212.999 C 185.638 213.007,185.679 212.866,185.679 223.056 C 185.679 233.065,185.739 232.848,183.035 232.695 L 181.235 232.593 181.070 223.539 C 180.880 213.107,180.876 213.091,178.517 212.940 L 176.955 212.840 176.955 211.193 L 176.955 209.547 178.366 209.359 C 180.703 209.047,180.846 208.725,181.103 203.212 C 181.370 197.471,181.644 196.421,183.288 194.822 C 185.070 193.090,190.300 192.360,191.830 193.631 M230.474 193.592 C 231.079 193.915,231.111 194.370,231.116 202.563 C 231.122 212.645,231.414 213.495,233.909 210.695 C 236.310 208.001,243.229 207.857,246.263 210.438 C 247.029 211.090,249.217 213.857,249.229 214.190 C 249.235 214.353,249.527 215.078,249.877 215.802 C 250.866 217.851,250.808 224.049,249.774 226.801 C 247.292 233.402,240.135 235.874,234.465 232.088 C 232.106 230.513,231.518 230.460,231.057 231.784 C 230.713 232.771,230.675 232.785,228.687 232.690 L 226.667 232.593 226.582 213.110 L 226.497 193.627 227.240 193.484 C 228.651 193.212,229.840 193.252,230.474 193.592 M98.123 195.446 C 97.438 196.316,97.433 196.474,97.523 214.506 C 97.628 235.650,97.351 234.074,100.956 234.074 C 104.382 234.074,104.362 234.122,104.362 225.871 C 104.362 216.710,104.371 216.692,107.038 220.329 C 117.703 234.872,116.928 234.074,120.367 234.074 C 125.581 234.074,125.599 234.169,118.600 224.954 C 111.901 216.132,111.971 216.285,114.361 215.683 C 121.638 213.850,122.604 200.430,115.749 196.413 C 112.403 194.452,99.463 193.742,98.123 195.446 M113.362 196.473 C 120.390 198.901,121.751 212.086,115.188 214.169 C 114.847 214.277,114.568 214.485,114.568 214.630 C 114.568 214.776,113.995 214.987,113.294 215.099 C 111.188 215.436,110.818 216.603,112.257 218.366 C 114.076 220.595,121.160 230.028,121.893 231.196 C 122.786 232.620,122.635 232.757,120.167 232.757 C 117.574 232.757,117.370 232.614,114.733 228.949 C 114.008 227.943,112.971 226.555,112.428 225.866 C 111.885 225.177,110.848 223.768,110.123 222.736 C 106.538 217.629,105.308 216.256,104.407 216.360 L 103.539 216.461 103.374 224.264 C 103.189 233.059,103.258 232.839,100.705 232.694 L 98.930 232.593 98.845 214.523 C 98.780 200.643,98.853 196.340,99.163 195.967 C 99.742 195.269,111.043 195.672,113.362 196.473 M104.527 200.275 C 103.660 200.928,103.510 210.497,104.351 211.510 C 105.588 213.000,112.846 211.352,113.366 209.464 C 114.608 204.951,114.124 202.659,111.602 201.115 C 109.718 199.962,105.592 199.472,104.527 200.275 M109.728 201.485 C 114.299 203.195,114.534 208.899,110.097 210.438 C 105.412 212.063,104.700 211.469,104.700 205.926 C 104.700 200.329,105.277 199.820,109.728 201.485 M134.650 207.696 C 126.094 209.604,121.801 220.294,126.312 228.461 C 130.942 236.845,144.542 237.195,149.676 229.062 C 150.896 227.129,150.257 226.075,147.054 224.737 L 145.838 224.229 144.182 225.859 C 139.612 230.358,133.682 229.748,131.912 224.598 C 131.090 222.207,131.031 222.222,141.235 222.222 C 151.795 222.222,151.307 222.398,150.974 218.721 C 150.255 210.784,142.944 205.847,134.650 207.696 M161.152 207.696 C 156.999 208.798,154.310 212.412,154.909 216.086 C 155.397 219.078,157.444 220.990,162.552 223.228 C 166.736 225.060,167.573 225.686,167.567 226.975 C 167.551 230.215,161.901 230.577,159.615 227.484 C 158.330 225.746,154.074 227.234,154.074 229.421 C 154.074 233.974,164.966 236.733,170.206 233.508 C 177.550 228.987,174.944 220.998,165.079 217.790 C 162.159 216.840,160.945 215.076,162.113 213.479 C 162.814 212.521,165.851 212.581,167.202 213.580 C 169.823 215.518,173.692 212.626,171.882 210.083 C 170.432 208.047,164.665 206.763,161.152 207.696 M203.903 207.728 C 194.900 209.654,190.890 221.339,196.389 229.623 C 200.818 236.296,211.786 236.825,217.678 230.650 C 220.614 227.572,220.518 226.826,216.949 225.018 C 215.235 224.149,214.669 224.307,213.204 226.063 C 209.600 230.382,202.678 229.491,201.188 224.517 C 200.502 222.227,200.522 222.222,210.755 222.222 C 221.270 222.222,220.750 222.441,220.225 218.247 C 219.253 210.473,212.229 205.946,203.903 207.728 M265.134 207.728 C 255.399 209.810,251.639 224.172,258.964 231.292 C 261.911 234.155,267.785 235.827,271.144 234.758 C 271.669 234.591,272.621 234.368,273.260 234.263 C 276.105 233.795,280.954 229.342,280.757 227.378 C 280.674 226.543,280.339 226.217,278.574 225.250 L 276.489 224.109 274.788 225.749 C 269.973 230.392,263.589 229.690,262.392 224.387 C 261.898 222.193,261.775 222.222,271.548 222.222 C 282.815 222.222,282.652 222.315,281.168 216.737 C 279.265 209.583,272.977 206.051,265.134 207.728 M297.119 207.697 C 296.576 207.841,295.548 208.359,294.834 208.847 C 293.626 209.674,293.515 209.694,293.216 209.147 C 292.704 208.209,292.310 208.076,290.010 208.071 C 286.549 208.063,286.749 207.271,286.749 221.014 C 286.749 234.785,286.566 234.078,290.123 234.069 C 293.319 234.061,293.140 234.509,293.368 225.939 C 293.670 214.580,294.318 213.188,299.181 213.446 C 302.058 213.599,303.210 213.007,303.210 211.379 C 303.210 211.078,303.377 210.664,303.581 210.460 C 305.316 208.725,300.693 206.747,297.119 207.697 M142.881 209.127 C 147.098 210.666,150.123 215.055,150.123 219.634 L 150.123 221.197 140.564 221.298 C 129.942 221.410,130.220 221.346,130.490 223.619 C 131.245 229.973,140.080 231.878,144.782 226.701 C 146.066 225.287,146.146 225.278,147.989 226.358 C 149.870 227.460,149.376 228.694,146.008 231.311 C 141.265 234.995,133.066 234.548,129.024 230.383 C 126.089 227.358,124.578 218.838,126.468 215.967 C 126.766 215.514,127.108 214.813,127.229 214.409 C 127.878 212.235,131.537 209.658,135.473 208.604 C 136.553 208.315,141.640 208.674,142.881 209.127 M168.724 209.080 C 171.346 210.217,171.927 211.847,170.067 212.849 C 168.944 213.453,168.937 213.453,167.668 212.613 C 165.182 210.968,162.780 211.130,161.163 213.051 C 159.591 214.919,160.437 216.632,163.696 218.183 C 164.832 218.723,166.899 219.708,168.289 220.371 C 176.989 224.519,174.129 233.515,164.095 233.562 C 157.360 233.593,152.585 230.030,156.821 228.134 L 158.151 227.539 159.440 228.828 C 162.241 231.629,167.160 231.319,168.438 228.261 C 169.283 226.239,168.177 224.623,164.938 223.148 C 157.287 219.664,156.044 218.556,156.003 215.185 C 155.965 212.003,158.131 209.548,161.811 208.599 C 162.956 208.304,167.696 208.634,168.724 209.080 M212.689 209.367 C 216.535 210.833,219.850 215.899,219.527 219.818 L 219.424 221.070 210.041 221.235 C 199.757 221.415,199.832 221.401,199.843 223.147 C 199.883 229.483,208.740 231.946,213.745 227.012 C 215.451 225.331,215.897 225.285,217.689 226.610 C 218.920 227.520,218.848 227.912,217.115 229.765 C 212.118 235.108,202.587 235.163,197.857 229.877 C 197.134 229.070,196.543 228.221,196.543 227.990 C 196.543 227.759,196.335 227.398,196.081 227.187 C 194.654 226.003,194.774 216.900,196.242 215.034 C 196.589 214.593,196.872 214.118,196.872 213.979 C 196.872 213.512,198.999 211.298,200.329 210.380 C 203.262 208.356,208.837 207.899,212.689 209.367 M273.534 209.198 C 277.844 210.730,280.803 215.254,280.436 219.753 L 280.329 221.070 270.947 221.253 C 265.786 221.353,261.532 221.464,261.493 221.499 C 260.475 222.426,261.359 225.927,263.008 227.504 C 266.317 230.666,271.695 230.443,275.036 227.005 C 276.417 225.584,278.189 225.118,278.189 226.176 C 278.189 226.320,278.640 226.595,279.192 226.787 C 280.167 227.127,280.181 227.161,279.710 228.054 C 276.308 234.498,265.141 235.801,259.676 230.391 C 255.176 225.936,254.921 217.677,259.127 212.575 C 260.811 210.532,262.859 209.372,266.173 208.584 C 267.398 208.293,272.090 208.684,273.534 209.198 M302.092 209.082 C 303.876 210.563,301.987 212.469,298.713 212.492 C 293.428 212.529,292.346 214.826,292.346 226.003 C 292.346 230.203,292.229 232.084,291.951 232.362 C 291.438 232.874,288.644 232.874,288.132 232.362 C 287.504 231.734,287.572 210.258,288.204 209.734 C 289.104 208.987,292.127 209.429,292.340 210.339 C 292.699 211.873,293.520 211.960,294.718 210.589 C 296.460 208.596,300.509 207.769,302.092 209.082 M135.985 212.403 C 134.061 212.845,132.610 213.991,131.647 215.831 L 130.864 217.327 131.641 217.964 C 132.765 218.884,143.391 218.935,144.493 218.025 C 147.435 215.593,140.902 211.276,135.985 212.403 M206.091 212.232 C 203.385 212.726,201.639 214.058,200.678 216.362 C 199.838 218.375,200.489 218.601,207.130 218.601 C 213.731 218.601,214.483 218.407,214.218 216.776 C 213.741 213.836,209.696 211.575,206.091 212.232 M267.325 212.244 C 263.451 212.894,260.075 217.035,262.404 218.281 C 263.564 218.901,274.744 218.567,275.419 217.892 C 277.162 216.146,271.391 211.386,268.350 212.061 C 268.239 212.086,267.778 212.168,267.325 212.244 M235.846 212.703 C 231.857 213.860,229.615 220.632,231.711 225.197 C 234.682 231.670,243.279 231.383,245.373 224.741 C 247.747 217.210,242.624 210.737,235.846 212.703 M141.622 213.919 C 145.751 216.642,144.827 217.613,138.107 217.613 C 132.349 217.613,132.346 217.613,132.357 216.872 C 132.398 214.068,138.768 212.037,141.622 213.919 M211.174 214.070 C 212.318 214.820,213.499 216.750,213.155 217.307 C 213.049 217.477,210.414 217.613,207.223 217.613 L 201.481 217.613 201.481 216.852 C 201.481 216.104,202.496 214.954,204.106 213.878 C 205.413 213.004,209.727 213.121,211.174 214.070 M241.530 214.125 C 245.629 216.911,245.805 225.365,241.820 228.096 C 236.743 231.574,230.887 225.646,232.405 218.565 C 233.373 214.049,238.061 211.768,241.530 214.125 M272.480 214.173 C 273.673 215.084,274.566 216.544,274.331 217.202 C 274.068 217.939,262.713 217.778,262.728 217.037 C 262.791 213.967,269.591 211.970,272.480 214.173 M227.298 246.915 C 226.819 247.101,226.286 248.060,225.530 250.092 C 224.935 251.694,224.090 253.967,223.651 255.144 C 223.213 256.321,222.649 257.877,222.398 258.601 C 222.147 259.325,221.329 261.621,220.579 263.704 C 217.357 272.650,217.065 274.401,218.474 276.326 C 219.484 277.705,220.967 277.889,220.248 276.545 C 220.066 276.206,219.918 275.139,219.918 274.175 C 219.918 272.497,220.195 271.557,222.676 264.816 C 223.588 262.338,223.767 261.465,223.142 262.543 C 222.740 263.237,221.381 266.846,220.907 268.477 C 220.750 269.021,220.395 270.058,220.119 270.782 C 219.843 271.506,219.611 273.108,219.603 274.340 C 219.587 276.779,219.423 276.885,218.460 275.077 C 217.839 273.910,218.604 268.838,219.605 267.490 C 219.739 267.309,220.005 266.642,220.195 266.008 C 220.385 265.374,220.930 263.819,221.406 262.551 C 221.883 261.284,222.713 258.988,223.252 257.449 C 223.790 255.909,224.368 254.354,224.535 253.992 C 224.911 253.176,225.770 250.753,226.227 249.218 C 226.638 247.840,227.081 247.243,227.695 247.243 C 228.211 247.243,228.336 249.218,227.851 249.728 C 227.688 249.900,227.325 250.708,227.045 251.523 C 226.080 254.326,224.622 258.274,224.081 259.546 C 223.573 260.741,223.342 262.036,223.700 261.677 C 223.864 261.514,225.206 258.027,226.024 255.638 C 226.272 254.914,226.862 253.284,227.335 252.016 C 229.077 247.349,229.069 246.229,227.298 246.915 M253.839 247.550 C 253.651 247.901,253.497 248.382,253.496 248.620 C 253.495 248.859,253.277 249.468,253.013 249.976 C 252.748 250.483,252.387 251.372,252.210 251.951 C 251.362 254.723,250.166 257.638,249.432 258.721 C 248.985 259.379,248.515 260.574,248.386 261.376 C 248.108 263.110,247.062 266.000,245.612 269.042 C 244.217 271.967,244.894 276.121,246.945 277.219 C 247.818 277.686,248.155 277.355,247.642 276.533 C 246.987 275.485,247.184 273.255,248.192 270.286 C 249.489 266.467,251.169 261.704,251.500 260.905 C 251.743 260.318,252.816 257.407,253.987 254.156 C 254.216 253.523,254.724 252.171,255.116 251.154 C 256.389 247.856,256.407 246.914,255.199 246.914 C 254.528 246.914,254.063 247.131,253.839 247.550 M175.065 247.637 C 174.985 247.873,175.041 248.512,175.190 249.058 C 175.339 249.603,175.584 251.307,175.735 252.844 L 176.009 255.638 176.259 253.498 C 176.642 250.221,176.415 247.436,175.754 247.311 C 175.455 247.254,175.145 247.401,175.065 247.637 M255.567 247.670 C 255.657 247.905,255.516 248.683,255.253 249.398 C 254.990 250.114,254.631 251.174,254.455 251.753 C 254.279 252.332,253.918 253.221,253.654 253.728 C 253.389 254.235,253.172 254.917,253.171 255.243 C 253.170 255.569,252.952 256.254,252.687 256.767 C 252.197 257.715,251.655 259.141,250.554 262.387 C 250.216 263.383,249.622 265.012,249.233 266.008 C 247.915 269.389,246.934 272.612,246.711 274.290 C 246.435 276.374,246.057 275.841,245.619 272.746 C 245.329 270.698,245.367 270.398,246.111 268.931 C 247.376 266.434,248.252 264.037,248.614 262.081 C 248.796 261.092,249.358 259.682,249.862 258.948 C 250.366 258.214,250.892 257.095,251.030 256.461 C 251.169 255.827,251.541 254.716,251.859 253.992 C 253.207 250.913,253.467 250.211,253.679 249.082 C 253.954 247.614,255.191 246.690,255.567 247.670 M176.111 248.971 C 176.091 249.972,176.070 249.991,175.781 249.270 C 175.611 248.846,175.555 248.364,175.657 248.200 C 175.994 247.655,176.132 247.889,176.111 248.971 M148.360 249.116 C 148.286 249.190,148.300 250.170,148.391 251.296 C 148.577 253.617,147.956 255.619,144.083 265.185 C 141.079 272.604,140.892 275.365,143.257 277.355 C 144.252 278.193,145.514 278.475,145.514 277.860 C 145.514 277.679,145.304 277.531,145.046 277.531 C 143.736 277.531,143.716 272.825,145.013 269.862 C 147.365 264.488,150.591 255.443,150.950 253.217 C 151.318 250.928,149.471 248.005,148.360 249.116 M150.253 250.397 C 150.548 251.166,150.481 253.823,150.134 255.144 C 149.697 256.809,148.802 259.504,148.487 260.106 C 148.338 260.390,147.813 261.649,147.319 262.904 C 146.826 264.159,146.224 265.630,145.983 266.173 C 144.401 269.726,143.092 274.786,143.409 276.114 L 143.630 277.037 142.926 276.246 C 141.411 274.543,142.027 271.064,145.175 263.539 C 147.818 257.222,149.130 253.158,149.133 251.276 C 149.136 249.842,149.831 249.297,150.253 250.397 M162.305 251.852 C 161.942 252.214,161.646 252.693,161.646 252.915 C 161.646 253.138,161.331 254.138,160.946 255.138 C 160.561 256.137,160.061 257.473,159.835 258.107 C 157.440 264.831,156.710 266.673,155.443 269.194 L 154.256 271.556 154.825 273.144 C 155.138 274.018,155.393 274.989,155.393 275.303 C 155.392 275.617,155.798 276.310,156.296 276.841 C 157.253 277.863,158.683 278.487,158.683 277.882 C 158.683 277.689,158.557 277.531,158.404 277.531 C 156.767 277.531,156.932 272.645,158.726 267.987 C 159.110 266.989,159.613 265.654,159.844 265.021 C 160.074 264.387,160.734 262.609,161.310 261.070 C 161.886 259.531,162.436 257.975,162.533 257.613 C 162.855 256.407,161.771 258.108,161.378 259.426 C 161.189 260.058,160.645 261.613,160.169 262.881 C 158.252 267.983,156.708 273.161,156.708 274.484 C 156.708 275.889,156.237 276.388,155.930 275.309 C 154.885 271.622,154.908 271.225,156.335 268.277 C 157.078 266.742,157.900 264.826,158.161 264.019 C 158.833 261.941,159.637 259.701,159.988 258.930 C 160.153 258.568,160.386 257.901,160.506 257.449 C 161.083 255.272,162.511 252.094,163.040 251.811 C 163.997 251.298,164.114 252.320,163.310 254.187 C 162.917 255.102,162.641 256.080,162.697 256.361 C 162.753 256.642,163.156 255.838,163.593 254.574 C 164.659 251.490,164.019 250.137,162.305 251.852 M206.002 257.037 C 205.470 257.628,204.779 259.322,203.888 262.222 C 203.609 263.128,203.251 264.009,203.090 264.181 C 202.930 264.353,202.798 264.723,202.798 265.004 C 202.797 265.285,202.130 266.841,201.316 268.463 C 200.492 270.104,199.835 271.874,199.835 272.455 C 199.835 273.030,199.613 274.032,199.342 274.682 C 198.719 276.171,198.708 277.498,199.316 277.731 C 199.948 277.974,201.152 277.295,201.152 276.696 C 201.152 276.334,200.985 276.381,200.482 276.884 C 199.279 278.088,198.705 276.765,199.643 274.950 C 199.900 274.455,200.258 273.314,200.440 272.415 C 200.804 270.619,201.410 268.921,202.140 267.654 C 202.700 266.682,203.362 265.036,203.928 263.210 C 204.152 262.486,204.582 261.342,204.884 260.669 C 205.185 259.996,205.432 259.285,205.432 259.089 C 205.432 258.333,206.462 256.790,206.967 256.790 C 207.545 256.790,207.397 259.465,206.777 260.214 C 206.612 260.413,206.309 261.509,206.102 262.648 C 205.896 263.788,205.307 265.432,204.795 266.302 C 204.282 267.172,203.754 268.239,203.623 268.674 C 203.491 269.109,203.196 269.909,202.967 270.453 C 201.804 273.211,201.154 275.038,201.165 275.517 C 201.179 276.104,201.954 274.482,202.640 272.428 C 203.623 269.485,204.147 268.271,205.107 266.711 C 205.661 265.811,206.322 264.137,206.577 262.990 C 206.832 261.844,207.278 260.049,207.566 259.002 C 208.250 256.525,207.413 255.473,206.002 257.037 M186.536 257.496 C 182.376 259.689,179.197 265.101,178.932 270.441 L 178.800 273.086 179.075 270.731 C 179.658 265.750,182.371 260.573,185.305 258.845 C 186.307 258.255,186.190 258.835,184.938 260.667 C 182.255 264.593,181.359 267.321,181.158 272.181 C 181.066 274.399,180.896 276.214,180.780 276.214 C 180.486 276.214,179.707 274.915,179.404 273.920 L 179.151 273.086 179.123 273.915 C 179.088 274.951,180.503 277.082,181.420 277.373 C 182.430 277.693,182.565 277.341,181.904 276.112 C 179.595 271.826,184.213 259.497,188.978 257.224 L 189.794 256.835 188.807 256.827 C 188.263 256.823,187.242 257.124,186.536 257.496 M214.357 258.036 C 213.610 259.500,213.914 260.412,215.149 260.412 C 216.545 260.412,217.134 258.340,216.023 257.335 C 215.188 256.578,215.077 256.625,214.357 258.036 M241.481 257.247 C 237.832 258.645,235.377 261.467,232.764 267.271 L 231.435 270.223 231.811 272.807 C 232.251 275.827,232.808 277.089,233.927 277.599 C 235.054 278.112,235.186 277.820,234.603 276.103 C 233.077 271.609,238.430 259.718,243.128 257.168 L 243.786 256.810 243.128 256.839 C 242.765 256.856,242.025 257.039,241.481 257.247 M216.046 258.594 C 216.228 259.545,215.637 260.188,214.857 259.888 C 214.192 259.633,214.193 259.577,214.875 258.423 C 215.505 257.357,215.819 257.403,216.046 258.594 M195.441 259.808 C 195.328 260.230,195.233 261.419,195.231 262.449 C 195.227 264.158,195.111 264.455,193.909 265.844 C 192.616 267.339,192.422 267.897,192.565 269.720 C 192.643 270.707,191.813 272.277,190.046 274.486 C 188.418 276.521,189.480 276.257,191.697 274.074 C 192.709 273.078,193.819 272.263,194.162 272.263 C 195.038 272.263,195.257 271.948,194.875 271.235 C 194.633 270.783,194.766 269.990,195.381 268.208 C 196.032 266.320,196.213 265.154,196.209 262.856 C 196.204 259.826,195.832 258.349,195.441 259.808 M239.629 259.835 C 239.412 260.243,238.821 261.095,238.315 261.728 C 236.091 264.513,233.585 271.868,233.801 274.974 C 233.918 276.663,233.524 276.888,232.853 275.515 C 231.180 272.087,233.199 265.168,237.128 260.869 C 238.813 259.025,240.412 258.364,239.629 259.835 M195.650 265.980 C 195.354 266.196,194.232 270.464,194.236 271.358 C 194.238 271.737,193.985 271.934,193.498 271.935 C 192.055 271.936,192.607 267.823,194.259 266.268 C 195.501 265.098,195.558 264.953,195.622 262.812 L 195.688 260.576 195.801 263.181 C 195.863 264.614,195.796 265.873,195.650 265.980 " stroke="none" fill="#f4848f" fill-rule="evenodd"></path><path id="path4" d="M180.446 48.788 C 179.507 51.185,179.020 53.746,179.167 55.513 C 179.300 57.124,179.225 57.504,178.685 57.941 C 178.053 58.453,178.054 58.473,178.734 59.626 L 179.422 60.792 178.600 61.565 C 177.292 62.793,178.480 70.107,181.007 76.379 C 181.622 77.905,182.675 81.472,182.903 82.798 C 183.027 83.523,183.315 84.337,183.542 84.609 C 183.769 84.881,184.058 85.440,184.184 85.852 C 184.792 87.847,188.661 88.220,190.094 86.423 C 190.748 85.603,190.891 85.556,191.527 85.954 C 192.882 86.800,196.336 85.236,196.656 83.632 C 196.836 82.732,196.961 82.662,198.576 82.569 C 200.108 82.480,200.325 82.377,200.499 81.646 C 200.666 80.947,200.891 80.819,201.994 80.797 C 204.789 80.742,206.521 79.566,209.557 75.662 C 209.743 75.422,210.715 74.189,211.716 72.922 C 215.154 68.570,215.466 67.346,213.333 66.585 C 210.502 65.574,203.420 67.009,202.101 68.861 C 201.483 69.729,201.258 69.826,200.285 69.643 C 198.925 69.388,196.341 70.982,196.016 72.277 C 195.862 72.891,195.595 73.086,194.907 73.086 C 193.317 73.086,186.858 78.657,186.011 80.760 L 185.721 81.481 185.700 80.722 C 185.688 80.304,185.846 79.300,186.050 78.489 C 186.364 77.240,186.339 76.926,185.885 76.425 C 185.143 75.605,185.215 74.897,186.135 73.978 C 187.190 72.922,187.631 70.019,186.865 69.173 C 186.201 68.439,186.183 67.040,186.831 66.502 C 187.777 65.717,187.044 59.277,185.859 57.954 C 185.610 57.676,185.422 56.919,185.441 56.272 C 185.466 55.474,185.145 54.575,184.445 53.474 C 183.877 52.582,182.965 51.086,182.418 50.151 C 181.200 48.066,180.829 47.810,180.446 48.788 M151.907 64.023 C 151.604 65.231,154.180 71.388,155.390 72.350 C 155.906 72.759,156.419 73.500,156.531 73.996 C 156.642 74.492,157.443 75.693,158.309 76.667 C 159.836 78.381,160.474 78.667,161.965 78.306 C 162.299 78.226,162.559 78.635,162.805 79.624 C 163.071 80.698,163.489 81.303,164.461 82.027 C 166.120 83.260,166.126 83.310,164.713 84.212 C 163.545 84.959,163.523 84.961,162.835 84.336 C 161.214 82.862,157.140 82.608,154.600 83.823 C 154.074 84.074,153.037 84.273,152.295 84.266 C 151.016 84.252,143.233 87.692,143.216 88.278 C 143.197 88.946,150.068 91.032,151.283 90.727 C 151.925 90.566,152.387 90.719,153.117 91.333 C 154.864 92.803,160.925 92.903,166.669 91.557 C 174.223 89.787,175.424 89.510,177.015 89.170 C 178.795 88.791,180.582 89.005,180.241 89.557 C 180.132 89.733,179.719 89.877,179.322 89.879 C 178.925 89.880,178.156 90.117,177.613 90.406 C 177.070 90.695,175.913 91.147,175.042 91.410 C 174.171 91.673,172.912 92.380,172.244 92.981 C 171.274 93.852,170.822 94.042,170.007 93.920 C 168.751 93.731,165.567 95.424,164.524 96.835 C 164.068 97.451,163.531 97.778,162.973 97.778 C 162.146 97.778,157.925 100.906,157.229 102.035 C 157.063 102.304,156.142 103.303,155.183 104.255 C 151.737 107.673,149.702 114.113,151.882 114.698 C 153.841 115.223,156.164 114.692,156.975 113.533 C 157.343 113.008,157.710 112.890,158.641 113.001 C 161.698 113.364,165.597 110.817,165.597 108.456 C 165.597 107.568,166.709 107.346,167.916 107.992 C 169.961 109.086,179.419 97.903,181.568 91.852 L 181.977 90.700 182.320 91.523 C 182.509 91.975,182.836 94.568,183.047 97.284 C 183.804 107.038,184.060 108.663,185.873 115.226 C 186.842 118.732,187.999 122.152,189.063 124.652 C 191.824 131.142,193.330 135.398,193.925 138.388 C 194.456 141.063,194.323 141.226,191.605 141.222 C 189.893 141.219,184.823 142.033,180.082 143.071 C 178.905 143.329,177.128 143.676,176.132 143.841 C 173.810 144.228,170.660 145.088,169.333 145.697 C 168.762 145.959,167.964 146.173,167.558 146.173 C 167.153 146.173,166.212 146.454,165.468 146.799 C 164.724 147.143,162.937 147.917,161.496 148.518 C 152.456 152.296,147.479 157.766,148.991 162.261 C 149.971 165.175,153.309 168.351,157.366 170.232 C 157.819 170.442,159.226 171.108,160.494 171.713 C 164.018 173.396,172.933 176.220,178.601 177.450 C 180.412 177.843,182.255 178.310,182.698 178.487 C 190.154 181.476,211.254 181.518,228.148 178.578 C 235.064 177.374,239.217 177.016,248.472 176.825 L 258.095 176.626 259.164 175.557 C 260.845 173.874,260.439 170.882,257.863 165.978 C 257.230 164.772,256.406 163.193,256.032 162.469 C 253.640 157.831,250.758 154.464,246.475 151.303 L 243.897 149.400 244.636 148.613 C 245.043 148.180,246.596 146.997,248.088 145.984 C 249.580 144.970,251.122 143.842,251.515 143.476 L 252.229 142.810 251.465 141.990 C 249.199 139.560,246.781 139.148,244.484 140.800 C 237.233 146.013,237.241 146.009,233.878 144.836 C 232.809 144.463,230.971 143.957,229.794 143.712 C 225.143 142.742,224.665 141.588,226.995 136.955 C 227.671 135.611,228.807 132.533,228.807 132.044 C 228.807 131.795,229.335 130.946,229.981 130.157 C 230.627 129.369,230.997 128.724,230.804 128.724 C 230.359 128.724,230.342 127.515,230.782 127.243 C 230.963 127.131,231.111 126.686,231.111 126.254 C 231.111 125.819,231.441 125.229,231.852 124.931 C 232.536 124.434,232.542 124.400,231.934 124.501 C 231.521 124.570,231.159 125.008,230.961 125.680 C 230.474 127.331,229.691 127.082,229.927 125.350 C 230.112 123.987,230.107 123.976,229.707 124.938 C 229.481 125.481,228.942 126.593,228.509 127.407 C 228.076 128.222,227.532 129.630,227.300 130.535 C 226.755 132.662,225.725 135.537,225.057 136.790 C 224.768 137.333,224.530 137.968,224.529 138.200 C 224.528 138.433,224.147 139.373,223.682 140.289 L 222.838 141.956 221.295 141.778 C 218.862 141.497,210.614 140.885,205.930 140.638 C 201.998 140.430,201.645 140.358,201.549 139.753 C 201.283 138.075,198.522 131.152,196.757 127.737 C 194.080 122.557,192.859 120.092,191.568 117.260 C 190.963 115.934,190.415 115.010,190.349 115.207 C 190.284 115.405,192.169 119.421,194.539 124.132 C 196.909 128.843,198.853 132.878,198.859 133.098 C 198.865 133.318,199.156 134.091,199.506 134.815 C 199.856 135.539,200.147 136.324,200.153 136.560 C 200.160 136.795,200.394 137.432,200.675 137.975 C 201.672 139.902,200.819 140.548,197.124 140.666 C 195.305 140.723,194.818 140.262,194.251 137.942 C 193.677 135.597,192.230 131.380,191.217 129.105 C 190.706 127.957,190.288 126.840,190.288 126.623 C 190.288 126.407,189.988 125.643,189.621 124.926 C 185.093 116.067,181.173 89.877,184.376 89.877 C 184.662 89.877,185.351 92.497,185.346 93.561 C 185.343 93.979,185.577 95.432,185.865 96.790 C 186.154 98.148,186.669 100.593,187.011 102.222 C 188.265 108.203,189.251 112.127,189.781 113.251 C 190.388 114.539,190.320 114.154,189.252 110.288 C 188.520 107.639,188.279 106.587,187.291 101.728 C 186.941 100.008,186.423 97.564,186.139 96.296 C 185.854 95.029,185.672 93.335,185.733 92.533 L 185.844 91.075 186.693 92.369 C 187.161 93.080,187.900 94.212,188.336 94.883 C 188.845 95.666,189.425 96.138,189.955 96.200 C 190.657 96.282,190.810 96.507,190.968 97.692 C 191.215 99.538,192.391 100.810,193.726 100.676 C 194.657 100.582,194.727 100.659,194.960 102.020 C 195.118 102.943,195.474 103.655,195.947 103.995 C 197.664 105.229,199.355 106.038,199.910 105.893 C 200.455 105.751,201.259 106.261,201.534 106.924 C 201.688 107.293,209.344 109.120,209.613 108.851 C 210.388 108.076,207.754 102.803,206.347 102.312 C 205.562 102.038,205.416 101.836,205.569 101.227 C 206.073 99.221,200.580 95.307,194.239 93.152 C 192.519 92.568,190.165 91.666,189.008 91.148 C 187.851 90.630,186.653 90.206,186.345 90.206 C 186.037 90.206,185.608 89.818,185.392 89.344 C 185.045 88.582,184.876 88.510,183.940 88.728 C 181.409 89.316,181.245 89.231,181.133 87.280 C 180.983 84.646,178.431 80.752,176.257 79.841 C 175.471 79.512,175.180 79.140,175.013 78.254 C 174.768 76.945,172.735 74.884,171.344 74.535 C 170.861 74.414,170.158 73.793,169.722 73.103 C 168.911 71.817,165.375 69.465,164.254 69.465 C 163.904 69.465,163.295 69.095,162.901 68.642 C 162.508 68.189,162.079 67.819,161.948 67.819 C 161.817 67.819,160.769 67.281,159.620 66.624 C 153.290 63.005,152.251 62.655,151.907 64.023 M171.243 85.761 C 171.243 85.933,171.084 86.127,170.889 86.192 C 170.694 86.257,170.535 86.063,170.535 85.761 C 170.535 85.460,170.694 85.266,170.889 85.331 C 171.084 85.395,171.243 85.589,171.243 85.761 M222.176 121.133 C 222.604 121.506,223.110 121.811,223.301 121.811 C 223.706 121.811,223.687 121.794,222.387 121.033 L 221.399 120.455 222.176 121.133 M229.951 128.304 C 230.151 129.373,230.071 129.618,229.329 130.210 C 228.861 130.583,228.476 131.180,228.475 131.535 C 228.474 131.890,228.254 132.601,227.987 133.114 C 227.719 133.627,227.344 134.627,227.153 135.336 C 226.962 136.045,226.644 136.626,226.446 136.626 C 225.895 136.626,226.362 133.932,226.972 133.590 C 227.257 133.431,227.491 132.901,227.493 132.412 C 227.500 130.737,228.835 127.078,229.440 127.078 C 229.595 127.078,229.824 127.630,229.951 128.304 M238.763 127.315 C 237.968 127.601,238.733 128.066,239.937 128.028 C 240.647 128.005,240.879 127.922,240.494 127.828 C 240.132 127.739,239.687 127.553,239.506 127.416 C 239.325 127.279,238.991 127.233,238.763 127.315 M226.173 137.399 C 226.173 138.167,225.464 139.918,225.153 139.918 C 224.990 139.918,224.856 140.561,224.856 141.348 C 224.856 142.361,224.664 142.953,224.198 143.374 C 223.835 143.702,223.539 144.302,223.539 144.707 C 223.539 145.112,223.317 145.529,223.045 145.633 C 222.309 145.916,222.406 144.137,223.210 142.637 C 223.572 141.962,223.868 141.240,223.868 141.033 C 223.868 140.826,224.091 140.472,224.362 140.247 C 224.634 140.022,224.856 139.475,224.856 139.033 C 224.856 138.089,225.401 136.955,225.855 136.955 C 226.030 136.955,226.173 137.155,226.173 137.399 M249.186 140.889 C 252.404 142.514,252.345 142.672,247.243 146.066 C 245.704 147.090,243.550 148.866,242.456 150.013 C 240.895 151.650,240.258 152.100,239.493 152.104 C 238.317 152.109,238.097 152.229,233.202 155.533 L 229.333 158.144 226.847 158.104 C 225.480 158.081,222.903 157.963,221.119 157.841 C 218.751 157.680,217.664 157.733,217.090 158.040 C 216.483 158.365,215.909 158.380,214.572 158.104 C 210.664 157.298,208.742 157.037,206.729 157.041 C 204.324 157.045,193.807 156.400,192.665 156.178 C 191.747 155.999,190.635 153.925,191.171 153.389 C 191.541 153.019,204.423 153.491,210.206 154.087 C 215.400 154.622,218.530 154.508,218.992 153.767 C 219.378 153.149,219.411 153.154,220.132 153.932 C 221.421 155.323,224.884 155.106,227.085 153.498 C 228.015 152.819,229.873 151.486,231.215 150.535 C 232.557 149.585,234.008 148.460,234.440 148.036 C 234.873 147.612,235.967 146.841,236.872 146.322 C 237.778 145.804,239.378 144.781,240.429 144.048 C 247.226 139.310,246.545 139.556,249.186 140.889 M216.955 143.069 C 218.494 143.353,220.102 143.656,220.528 143.742 C 221.426 143.923,221.344 145.242,220.284 147.654 C 219.666 149.062,219.079 150.598,218.479 152.382 L 218.107 153.487 215.473 153.280 C 214.025 153.166,210.321 152.933,207.243 152.763 C 204.165 152.593,199.364 152.289,196.575 152.088 C 190.617 151.660,190.090 151.738,189.792 153.096 C 189.577 154.075,191.229 157.366,191.936 157.366 C 192.201 157.366,193.626 159.442,195.415 162.435 C 195.945 163.321,196.764 164.458,197.234 164.962 L 198.090 165.878 200.527 164.744 C 201.867 164.120,203.185 163.467,203.457 163.291 C 204.312 162.739,208.024 160.988,208.341 160.988 C 208.507 160.988,208.828 160.765,209.053 160.494 C 209.796 159.599,211.029 159.866,211.029 160.922 C 211.029 162.988,217.678 164.230,220.802 162.747 C 221.677 162.332,222.237 162.273,223.156 162.500 C 224.867 162.923,224.704 163.668,222.781 164.211 C 221.030 164.705,220.293 165.769,220.906 166.915 C 222.276 169.475,201.241 170.814,192.428 168.728 C 191.342 168.471,188.971 167.950,187.160 167.570 C 184.155 166.940,182.365 166.491,177.119 165.054 C 168.789 162.772,161.975 158.437,161.975 155.419 C 161.975 151.399,169.833 146.885,180.412 144.829 C 181.226 144.670,182.515 144.372,183.276 144.166 L 184.659 143.792 186.241 145.416 C 187.910 147.129,187.771 147.071,194.069 148.674 C 197.646 149.584,198.820 149.599,206.255 148.826 C 211.846 148.245,211.687 148.292,211.687 147.203 C 211.687 146.690,211.317 145.574,210.864 144.723 C 210.412 143.872,210.041 143.035,210.041 142.863 C 210.041 142.381,213.849 142.494,216.955 143.069 M227.819 145.618 C 229.570 146.240,231.938 147.300,232.353 147.649 C 232.748 147.981,231.561 149.084,228.791 150.957 C 226.999 152.169,225.363 153.366,225.154 153.617 C 224.924 153.895,224.132 154.074,223.133 154.074 L 221.491 154.074 221.721 152.840 C 221.848 152.160,222.068 151.457,222.209 151.276 C 222.350 151.095,222.649 150.377,222.874 149.680 C 223.098 148.984,223.487 148.021,223.738 147.540 C 223.988 147.060,224.194 146.492,224.196 146.279 C 224.203 144.875,225.209 144.692,227.819 145.618 M222.222 147.819 C 222.222 148.362,222.074 148.807,221.893 148.807 C 221.527 148.807,221.439 147.395,221.783 147.051 C 222.155 146.679,222.222 146.796,222.222 147.819 M220.600 152.206 C 220.180 152.627,220.102 151.189,220.494 150.233 C 220.685 149.766,220.765 149.880,220.847 150.741 C 220.905 151.353,220.794 152.012,220.600 152.206 M236.708 154.931 C 236.708 155.378,231.637 162.705,231.215 162.867 C 230.964 162.963,230.134 162.740,229.371 162.371 C 228.608 162.001,227.317 161.451,226.502 161.148 C 225.687 160.845,224.428 160.319,223.704 159.978 C 222.979 159.638,222.091 159.298,221.728 159.224 C 221.366 159.150,223.096 159.072,225.571 159.051 C 229.865 159.014,230.118 158.974,231.051 158.189 C 231.589 157.737,232.117 157.366,232.225 157.366 C 232.333 157.366,233.274 156.774,234.318 156.050 C 236.154 154.775,236.708 154.516,236.708 154.931 M241.883 157.788 C 245.365 164.844,244.681 166.091,237.327 166.091 C 232.230 166.091,231.999 166.005,233.108 164.523 C 233.546 163.936,234.997 161.827,236.333 159.835 C 240.242 154.004,240.051 154.074,241.883 157.788 M203.951 157.694 L 208.889 157.699 207.901 158.508 C 207.358 158.954,206.589 159.323,206.192 159.330 C 205.796 159.336,205.384 159.483,205.277 159.655 C 205.027 160.059,199.183 162.963,198.619 162.963 C 198.383 162.963,197.449 161.823,196.544 160.431 C 194.668 157.545,194.757 157.231,197.366 157.512 C 198.272 157.610,201.235 157.692,203.951 157.694 M230.480 165.267 C 230.646 165.267,230.782 165.490,230.782 165.761 C 230.782 166.341,230.333 166.390,229.434 165.909 C 228.708 165.521,228.933 164.790,229.690 165.080 C 229.958 165.183,230.313 165.267,230.480 165.267 M174.662 246.700 C 174.154 247.071,174.101 247.356,174.335 248.428 C 175.082 251.843,174.496 258.198,173.153 261.235 C 172.832 261.959,172.228 263.366,171.810 264.362 C 171.392 265.358,170.786 266.526,170.463 266.958 C 170.141 267.390,169.877 267.866,169.877 268.017 C 169.877 269.157,165.789 274.252,163.428 276.054 C 159.231 279.258,156.357 275.216,158.819 269.572 C 159.248 268.587,159.754 267.216,160.983 263.704 C 161.205 263.070,161.594 261.959,161.848 261.235 C 162.102 260.510,162.438 259.691,162.594 259.413 C 162.751 259.136,162.987 258.395,163.118 257.767 C 163.249 257.139,163.542 256.329,163.768 255.967 C 165.982 252.420,165.034 248.772,162.409 250.739 C 161.637 251.317,161.329 251.948,160.176 255.309 C 155.214 269.776,150.814 277.212,147.221 277.197 C 144.426 277.185,143.922 275.242,145.524 270.658 C 146.933 266.628,147.348 265.501,147.542 265.185 C 147.732 264.873,148.756 262.244,150.104 258.601 C 152.094 253.223,152.258 251.260,150.860 249.586 C 149.887 248.420,147.180 247.729,146.690 248.522 C 146.565 248.724,146.073 248.889,145.596 248.889 C 143.602 248.889,138.545 256.027,139.621 257.323 C 140.025 257.810,140.894 256.745,141.876 254.559 C 142.254 253.717,142.376 253.552,144.024 251.639 C 146.328 248.965,148.023 249.438,147.704 252.667 C 147.505 254.684,147.022 256.088,143.770 264.098 C 140.947 271.053,140.412 273.737,141.383 276.062 C 143.105 280.183,147.964 279.989,152.498 275.618 L 154.050 274.122 154.840 275.825 C 156.629 279.688,161.421 280.095,165.522 276.731 C 167.086 275.449,169.960 272.024,170.652 270.617 C 170.786 270.346,171.251 269.531,171.685 268.807 C 172.980 266.647,174.156 264.333,174.156 263.945 C 174.156 263.746,174.438 262.980,174.782 262.244 C 178.049 255.253,177.964 244.285,174.662 246.700 M226.239 246.650 C 226.021 246.867,225.843 247.201,225.842 247.391 C 225.840 247.581,225.633 248.132,225.381 248.615 C 225.129 249.098,224.470 250.802,223.916 252.401 C 222.852 255.474,222.465 256.540,221.066 260.247 C 220.587 261.514,220.050 263.070,219.871 263.704 C 219.511 264.981,218.444 267.855,217.672 269.630 C 216.836 271.549,216.957 275.530,217.887 276.712 C 220.838 280.464,225.458 279.431,229.687 274.074 L 230.726 272.757 230.974 273.745 C 232.499 279.814,236.983 280.537,242.090 275.537 C 243.943 273.722,244.332 273.658,244.632 275.121 C 245.769 280.681,254.360 279.642,257.365 273.580 C 257.589 273.128,257.959 272.475,258.187 272.130 C 260.346 268.859,260.710 268.150,260.390 267.832 C 259.989 267.432,259.012 268.531,258.279 270.206 C 258.022 270.794,257.656 271.276,257.465 271.276 C 257.275 271.276,257.119 271.482,257.119 271.733 C 257.119 272.452,253.618 275.826,252.301 276.376 C 247.556 278.359,246.810 275.205,250.064 266.916 C 250.685 265.333,251.193 263.800,251.193 263.510 C 251.193 263.220,251.414 262.589,251.683 262.108 C 252.207 261.171,252.992 259.085,253.621 256.955 C 253.835 256.230,254.175 255.342,254.377 254.979 C 254.579 254.617,254.897 253.802,255.085 253.169 C 255.273 252.535,255.817 250.931,256.293 249.605 C 256.974 247.710,257.076 247.093,256.770 246.724 C 255.993 245.788,253.169 246.359,253.169 247.452 C 253.169 247.735,252.949 248.433,252.680 249.004 C 252.411 249.574,251.673 251.515,251.040 253.316 C 249.713 257.087,249.135 257.911,248.461 256.989 C 247.509 255.687,243.020 255.623,240.494 256.875 C 237.439 258.390,234.510 261.706,232.720 265.679 C 228.631 274.755,223.481 279.248,220.912 275.983 C 219.869 274.658,220.029 274.021,224.364 262.222 C 225.029 260.412,225.909 257.967,226.319 256.790 C 226.729 255.613,227.443 253.613,227.906 252.346 C 229.650 247.568,229.784 246.931,229.116 246.574 C 228.292 246.133,226.714 246.175,226.239 246.650 M228.528 248.599 C 228.345 249.211,227.808 250.749,227.335 252.016 C 226.862 253.284,226.272 254.914,226.024 255.638 C 225.776 256.362,225.180 257.992,224.700 259.259 C 224.220 260.527,223.403 262.749,222.884 264.198 C 222.365 265.646,221.486 268.089,220.929 269.627 C 219.885 272.514,219.606 275.345,220.248 276.545 C 220.967 277.889,219.484 277.705,218.474 276.326 C 217.065 274.401,217.357 272.650,220.579 263.704 C 221.329 261.621,222.147 259.325,222.398 258.601 C 222.649 257.877,223.213 256.321,223.651 255.144 C 224.090 253.967,224.935 251.694,225.530 250.092 C 226.655 247.066,227.496 246.186,228.422 247.068 C 228.756 247.386,228.782 247.752,228.528 248.599 M256.024 248.109 C 255.917 248.766,255.509 250.136,255.116 251.154 C 254.724 252.171,254.216 253.523,253.987 254.156 C 252.816 257.407,251.743 260.318,251.500 260.905 C 251.169 261.704,249.489 266.467,248.192 270.286 C 247.184 273.255,246.987 275.485,247.642 276.533 C 248.155 277.355,247.818 277.686,246.945 277.219 C 244.894 276.121,244.217 271.967,245.612 269.042 C 247.062 266.000,248.108 263.110,248.386 261.376 C 248.515 260.574,248.985 259.379,249.432 258.721 C 250.166 257.638,251.362 254.723,252.210 251.951 C 252.387 251.372,252.748 250.483,253.013 249.976 C 253.277 249.468,253.495 248.859,253.496 248.620 C 253.501 247.612,254.197 246.914,255.199 246.914 C 256.187 246.914,256.212 246.950,256.024 248.109 M176.403 249.386 C 176.461 250.471,176.397 252.321,176.259 253.498 L 176.009 255.638 175.735 252.844 C 175.584 251.307,175.339 249.603,175.190 249.058 C 174.849 247.811,175.054 247.177,175.754 247.311 C 176.171 247.390,176.321 247.870,176.403 249.386 M150.616 250.533 C 151.555 252.614,149.579 259.430,145.013 269.862 C 143.716 272.825,143.736 277.531,145.046 277.531 C 145.304 277.531,145.514 277.679,145.514 277.860 C 145.514 278.475,144.252 278.193,143.257 277.355 C 140.892 275.365,141.079 272.604,144.083 265.185 C 147.956 255.619,148.577 253.617,148.391 251.296 C 148.203 248.963,148.217 248.930,149.272 249.132 C 149.785 249.230,150.245 249.710,150.616 250.533 M164.177 251.729 C 164.393 252.294,162.842 256.956,159.152 266.831 C 156.979 272.645,156.638 277.531,158.404 277.531 C 158.557 277.531,158.683 277.689,158.683 277.882 C 158.683 278.487,157.253 277.863,156.296 276.841 C 155.798 276.310,155.392 275.617,155.393 275.303 C 155.393 274.989,155.138 274.018,154.825 273.144 L 154.256 271.556 155.443 269.194 C 156.710 266.673,157.440 264.831,159.835 258.107 C 160.061 257.473,160.561 256.137,160.946 255.138 C 161.331 254.138,161.646 253.138,161.646 252.915 C 161.646 251.719,163.788 250.715,164.177 251.729 M187.981 256.110 C 182.777 257.693,178.107 264.885,178.107 271.316 C 178.107 279.498,185.281 281.516,191.686 275.137 L 193.745 273.086 196.317 273.054 L 198.889 273.022 198.663 274.358 C 198.539 275.093,198.286 275.937,198.100 276.234 C 197.563 277.095,198.066 278.418,199.000 278.597 C 200.375 278.860,201.156 278.161,202.030 275.885 C 202.481 274.708,203.135 273.051,203.483 272.202 C 203.831 271.354,204.127 270.391,204.141 270.062 C 204.155 269.734,204.594 268.798,205.116 267.984 C 205.639 267.169,206.292 266.007,206.567 265.403 C 207.261 263.884,209.110 261.070,209.416 261.070 C 209.554 261.070,209.764 260.765,209.882 260.393 C 210.401 258.760,213.547 257.305,213.151 258.882 C 212.910 259.844,214.120 261.399,215.111 261.399 C 216.874 261.399,218.128 258.369,216.952 256.951 C 215.604 255.327,212.014 255.724,210.406 257.674 C 209.350 258.955,208.655 258.888,208.798 257.519 C 208.922 256.338,207.604 255.654,206.170 256.153 C 205.275 256.465,203.447 260.074,203.455 261.514 C 203.456 261.668,203.251 262.260,203.000 262.831 C 202.749 263.401,202.205 264.757,201.790 265.844 C 200.318 269.701,198.861 271.276,196.765 271.276 C 195.369 271.276,195.155 270.808,195.779 269.120 C 199.059 260.232,195.262 253.896,187.981 256.110 M207.895 256.780 C 208.003 256.955,207.855 257.955,207.566 259.002 C 207.278 260.049,206.832 261.844,206.577 262.990 C 206.322 264.137,205.661 265.811,205.107 266.711 C 204.163 268.245,203.753 269.186,202.619 272.428 C 201.155 276.612,200.839 277.331,200.343 277.609 C 198.933 278.398,198.418 276.893,199.342 274.682 C 199.613 274.032,199.835 273.030,199.835 272.455 C 199.835 271.874,200.492 270.104,201.316 268.463 C 202.130 266.841,202.797 265.285,202.798 265.004 C 202.798 264.723,202.930 264.353,203.090 264.181 C 203.251 264.009,203.609 263.128,203.888 262.222 C 205.435 257.185,206.909 255.184,207.895 256.780 M188.978 257.224 C 184.213 259.497,179.595 271.826,181.904 276.112 C 183.020 278.185,181.228 277.924,179.830 275.811 C 176.203 270.330,182.611 256.778,188.807 256.827 L 189.794 256.835 188.978 257.224 M216.023 257.335 C 217.134 258.340,216.545 260.412,215.149 260.412 C 213.914 260.412,213.610 259.500,214.357 258.036 C 215.077 256.625,215.188 256.578,216.023 257.335 M243.128 257.168 C 238.430 259.718,233.077 271.609,234.603 276.103 C 235.186 277.820,235.054 278.112,233.927 277.599 C 232.808 277.089,232.251 275.827,231.811 272.807 L 231.435 270.223 232.764 267.271 C 235.686 260.781,239.439 257.003,243.128 256.839 L 243.786 256.810 243.128 257.168 M193.760 258.257 C 195.219 259.716,194.958 263.542,193.265 265.498 C 191.975 266.989,191.340 268.793,191.740 269.835 C 192.249 271.164,188.270 275.797,185.965 276.558 C 182.204 277.799,181.007 274.790,182.682 268.307 C 184.734 260.367,190.573 255.069,193.760 258.257 M247.093 258.257 C 248.080 259.243,248.094 259.843,247.206 263.024 C 244.079 274.234,234.490 282.175,235.152 273.008 C 235.758 264.614,243.673 254.837,247.093 258.257 M196.209 262.856 C 196.213 265.154,196.032 266.320,195.381 268.208 C 194.766 269.990,194.633 270.783,194.875 271.235 C 195.257 271.948,195.038 272.263,194.162 272.263 C 193.819 272.263,192.709 273.078,191.697 274.074 C 189.480 276.257,188.418 276.521,190.046 274.486 C 191.813 272.277,192.643 270.707,192.565 269.720 C 192.422 267.897,192.616 267.339,193.909 265.844 C 195.111 264.455,195.227 264.158,195.231 262.449 C 195.233 261.419,195.328 260.230,195.441 259.808 C 195.832 258.349,196.204 259.826,196.209 262.856 " stroke="none" fill="#a8c730" fill-rule="evenodd"></path></g></svg>